<svg width="453" height="422" viewBox="0 0 453 422" fill="none" xmlns="http://www.w3.org/2000/svg">
<g clip-path="url(#clip0_6_35)" filter="url(#filter0_d_6_35)">
<path d="M271.813 97.0568C270.755 97.0568 268.036 96.9246 264.112 96.6602C236.801 95.0751 210.135 88.6962 185.705 77.9039C165.008 68.7893 137.512 64.9595 122.556 68.3935H122.405C121.115 68.6943 119.77 68.7686 118.448 68.6122C117.125 68.4557 115.851 68.0717 114.699 67.4821C113.547 66.8926 112.54 66.1093 111.736 65.1775C110.933 64.2458 110.348 63.184 110.017 62.0535C106.542 50.8262 89.3195 42.7684 71.191 42.7684C49.4365 42.7684 31.9119 53.4678 31.9119 66.5443C31.9119 72.0919 35.0844 77.2437 40.3718 81.2065C55.3278 92.6982 63.6374 109.473 61.8239 126.909C61.312 131.452 61.5651 136.036 62.5753 140.514C63.0498 142.638 63.7581 144.717 64.6902 146.722C70.4313 159.532 92.9409 175.253 94.3008 187.142C104.88 278.811 132.372 312.1 233.289 325.174C334.055 338.251 424.548 297.7 435.123 234.561C445.699 171.686 428.477 98.906 271.813 97.0568Z" fill="#E1F3FF"/>
<path d="M147.179 30.352C145.094 30.1664 143.159 29.3192 141.74 27.9707C140.052 26.5097 138.045 25.3598 135.839 24.589C133.633 23.8182 131.272 23.4422 128.897 23.4833C119.833 23.4833 112.43 28.9027 112.43 35.503C112.43 42.1033 119.833 47.5228 128.897 47.5228C133.061 47.5618 137.114 46.3496 140.378 44.0888C141.903 43.1175 143.794 42.6922 145.666 42.8998C146.658 42.9827 147.658 42.8841 148.604 42.6103C149.55 42.3364 150.42 41.8933 151.159 41.3093C151.898 40.7252 152.49 40.0129 152.897 39.2178C153.303 38.4227 153.516 37.5622 153.522 36.6912C153.516 35.1435 152.871 33.6498 151.706 32.4849C150.54 31.3201 148.932 30.5627 147.179 30.352Z" fill="#E1F3FF"/>
<path d="M168.025 53.5991C168.025 55.4483 165.608 57.0331 162.738 57.0331C159.717 57.0331 157.45 55.5805 157.45 53.5991C157.45 51.75 159.868 50.1652 162.738 50.1652C165.759 50.1652 168.025 51.75 168.025 53.5991Z" fill="#E1F3FF"/>
<path d="M374.694 92.8304C374.694 96.133 369.558 98.7746 363.363 98.7746C357.169 98.7746 352.033 96.1322 352.033 92.8304C352.033 89.5286 357.17 86.8862 363.364 86.8862C369.709 86.8862 374.694 89.5278 374.694 92.8304Z" fill="#E1F3FF"/>
<path d="M384.665 82.2633C384.665 82.8642 384.461 83.4516 384.08 83.9512C383.698 84.4508 383.155 84.8402 382.52 85.0702C381.885 85.3001 381.187 85.3603 380.512 85.2431C379.838 85.1258 379.219 84.8365 378.733 84.4116C378.247 83.9867 377.916 83.4453 377.782 82.856C377.648 82.2666 377.717 81.6558 377.98 81.1006C378.243 80.5454 378.688 80.0709 379.26 79.7371C379.831 79.4033 380.503 79.2251 381.19 79.2251C382.109 79.234 382.987 79.557 383.636 80.1248C384.286 80.6927 384.655 81.4603 384.665 82.2633Z" fill="#E1F3FF"/>
<path opacity="0.421" d="M257.051 265.999L257.329 324.62C257.334 325.375 257.168 326.123 256.841 326.822C256.514 327.521 256.033 328.156 255.426 328.692C254.818 329.228 254.095 329.654 253.298 329.946C252.502 330.237 251.648 330.389 250.784 330.391L158.912 330.725C157.168 330.731 155.493 330.132 154.255 329.058C153.017 327.985 152.317 326.526 152.31 325.001L152.032 266.381C152.028 265.626 152.194 264.878 152.521 264.179C152.848 263.48 153.329 262.845 153.937 262.309C154.545 261.773 155.267 261.347 156.064 261.055C156.86 260.764 157.714 260.612 158.578 260.61L250.45 260.273C251.313 260.27 252.169 260.416 252.968 260.702C253.767 260.988 254.494 261.409 255.107 261.941C255.72 262.472 256.207 263.104 256.54 263.801C256.874 264.497 257.048 265.244 257.051 265.999Z" fill="#87D8F9"/>
<path d="M257.051 265.999L257.112 279.003L152.094 279.386L152.031 266.381C152.027 265.626 152.193 264.878 152.52 264.179C152.847 263.48 153.328 262.845 153.936 262.309C154.544 261.773 155.267 261.347 156.063 261.055C156.86 260.764 157.714 260.612 158.578 260.61L250.45 260.273C251.313 260.27 252.169 260.416 252.968 260.702C253.767 260.988 254.494 261.409 255.107 261.941C255.72 262.472 256.207 263.104 256.54 263.801C256.874 264.497 257.048 265.244 257.051 265.999Z" fill="#87D8F9"/>
<path d="M257.113 279.004L152.094 279.385L152.114 283.614L257.133 283.233L257.113 279.004Z" fill="white"/>
<path d="M184.543 267.486C184.55 268.846 184.095 270.177 183.236 271.311C182.377 272.444 181.153 273.33 179.719 273.856C178.285 274.381 176.704 274.523 175.178 274.263C173.651 274.004 172.247 273.354 171.143 272.396C170.038 271.439 169.284 270.217 168.974 268.884C168.664 267.551 168.813 266.168 169.402 264.91C169.991 263.652 170.994 262.574 172.284 261.814C173.573 261.054 175.092 260.645 176.647 260.639C177.68 260.635 178.703 260.809 179.659 261.152C180.615 261.494 181.484 261.997 182.217 262.633C182.95 263.268 183.533 264.024 183.932 264.857C184.331 265.69 184.539 266.583 184.543 267.486Z" fill="#AFE6FF"/>
<path d="M240.277 267.284C240.283 268.644 239.828 269.974 238.97 271.108C238.111 272.241 236.888 273.126 235.454 273.652C234.02 274.177 232.44 274.319 230.914 274.059C229.387 273.8 227.983 273.15 226.879 272.193C225.775 271.236 225.021 270.014 224.711 268.682C224.401 267.349 224.551 265.967 225.139 264.709C225.728 263.45 226.731 262.373 228.02 261.613C229.309 260.853 230.827 260.444 232.382 260.439C234.467 260.431 236.47 261.148 237.951 262.432C239.431 263.716 240.268 265.461 240.277 267.284Z" fill="#AFE6FF"/>
<path d="M178.12 272.043C177.659 272.156 177.182 272.214 176.703 272.214C175.997 272.217 175.298 272.099 174.644 271.866C173.99 271.632 173.396 271.289 172.894 270.854C172.393 270.42 171.994 269.903 171.722 269.334C171.449 268.764 171.307 268.154 171.304 267.536L171.255 257.352C171.249 256.106 171.809 254.908 172.812 254.023C173.309 253.585 173.9 253.236 174.551 252.998C175.202 252.759 175.9 252.635 176.606 252.632C177.312 252.629 178.011 252.748 178.665 252.982C179.318 253.215 179.912 253.559 180.413 253.994C180.915 254.428 181.313 254.945 181.586 255.514C181.859 256.083 182.001 256.693 182.004 257.311L182.054 267.494C182.06 268.525 181.679 269.528 180.968 270.351C180.257 271.173 179.256 271.767 178.12 272.043Z" fill="white"/>
<path d="M233.856 271.843C233.059 272.037 232.222 272.068 231.409 271.932C230.596 271.797 229.83 271.499 229.17 271.063C228.51 270.626 227.975 270.063 227.605 269.416C227.235 268.768 227.041 268.056 227.037 267.332L226.988 257.141C226.983 255.894 227.545 254.696 228.55 253.811C229.555 252.927 230.92 252.427 232.347 252.423C233.773 252.419 235.143 252.91 236.155 253.788C237.167 254.667 237.738 255.861 237.743 257.108L237.792 267.3C237.795 268.329 237.412 269.331 236.701 270.152C235.99 270.973 234.991 271.567 233.856 271.843Z" fill="white"/>
<path d="M174.486 290.812L164.268 290.849L164.304 298.436L174.522 298.399L174.486 290.812Z" fill="white"/>
<path d="M245.05 290.555L234.831 290.592L234.867 298.179L245.086 298.142L245.05 290.555Z" fill="white"/>
<path d="M227.407 290.62L217.19 290.657L217.226 298.243L227.443 298.206L227.407 290.62Z" fill="white"/>
<path d="M209.767 290.684L199.549 290.721L199.585 298.308L209.802 298.271L209.767 290.684Z" fill="white"/>
<path d="M192.127 290.748L181.909 290.785L181.945 298.372L192.163 298.335L192.127 290.748Z" fill="#E1F3FF"/>
<path d="M174.543 303.139L164.326 303.177L164.363 310.763L174.581 310.725L174.543 303.139Z" fill="#E1F3FF"/>
<path d="M245.108 302.883L234.89 302.92L234.926 310.506L245.144 310.47L245.108 302.883Z" fill="white"/>
<path d="M227.466 302.947L217.249 302.984L217.285 310.57L227.502 310.533L227.466 302.947Z" fill="white"/>
<path d="M209.826 303.011L199.608 303.048L199.644 310.634L209.862 310.598L209.826 303.011Z" fill="white"/>
<path d="M192.185 303.075L181.968 303.112L182.003 310.699L192.221 310.662L192.185 303.075Z" fill="white"/>
<path d="M174.603 315.467L164.386 315.504L164.421 323.09L174.639 323.053L174.603 315.467Z" fill="white"/>
<path d="M245.166 315.209L234.949 315.246L234.985 322.832L245.202 322.795L245.166 315.209Z" fill="#5968F6"/>
<path d="M227.524 315.273L217.307 315.312L217.344 322.898L227.561 322.86L227.524 315.273Z" fill="white"/>
<path d="M209.884 315.339L199.667 315.376L199.703 322.962L209.92 322.925L209.884 315.339Z" fill="white"/>
<path d="M192.243 315.403L182.026 315.439L182.062 323.025L192.279 322.988L192.243 315.403Z" fill="white"/>
<path d="M237.799 322.759C237.33 322.759 236.928 322.685 236.592 322.538C236.264 322.391 235.992 322.199 235.779 321.964L236.401 321.142C236.577 321.307 236.772 321.443 236.985 321.549C237.199 321.655 237.427 321.708 237.671 321.708C237.957 321.708 238.186 321.652 238.356 321.54C238.527 321.422 238.612 321.257 238.612 321.045C238.612 320.88 238.569 320.739 238.484 320.621C238.399 320.497 238.243 320.403 238.018 320.338C237.793 320.274 237.47 320.241 237.049 320.241L237.049 319.323C237.573 319.323 237.933 319.255 238.128 319.119C238.323 318.978 238.42 318.795 238.42 318.572C238.42 318.377 238.359 318.227 238.237 318.121C238.115 318.009 237.939 317.953 237.707 317.953C237.5 317.953 237.311 317.998 237.141 318.086C236.976 318.174 236.803 318.295 236.62 318.448L235.944 317.653C236.212 317.429 236.495 317.256 236.794 317.132C237.092 317.002 237.418 316.938 237.771 316.938C238.368 316.938 238.85 317.073 239.215 317.344C239.587 317.609 239.772 317.986 239.772 318.475C239.772 318.763 239.687 319.01 239.517 319.217C239.352 319.423 239.115 319.59 238.804 319.72L238.804 319.755C239.139 319.85 239.413 320.012 239.626 320.241C239.846 320.465 239.955 320.759 239.955 321.125C239.955 321.472 239.855 321.769 239.654 322.017C239.459 322.258 239.197 322.444 238.868 322.573C238.545 322.697 238.189 322.759 237.799 322.759ZM242.818 322.759C242.197 322.759 241.694 322.508 241.311 322.008C240.933 321.507 240.744 320.78 240.744 319.826C240.744 318.872 240.933 318.154 241.311 317.671C241.694 317.182 242.197 316.938 242.818 316.938C243.44 316.938 243.939 317.182 244.317 317.671C244.701 318.154 244.893 318.872 244.893 319.826C244.893 320.78 244.701 321.507 244.317 322.008C243.939 322.508 243.44 322.759 242.818 322.759ZM242.818 321.752C242.971 321.752 243.108 321.699 243.229 321.593C243.351 321.481 243.446 321.287 243.513 321.01C243.586 320.733 243.622 320.338 243.622 319.826C243.622 319.314 243.586 318.922 243.513 318.651C243.446 318.38 243.351 318.195 243.229 318.095C243.108 317.995 242.971 317.945 242.818 317.945C242.672 317.945 242.538 317.995 242.416 318.095C242.294 318.195 242.197 318.38 242.124 318.651C242.051 318.922 242.014 319.314 242.014 319.826C242.014 320.338 242.051 320.733 242.124 321.01C242.197 321.287 242.294 321.481 242.416 321.593C242.538 321.699 242.672 321.752 242.818 321.752Z" fill="white"/>
<path d="M55.6265 262.563C54.569 255.958 53.0579 245.523 45.6555 237.333C34.1743 224.655 13.1749 222.409 13.1749 222.409C13.1749 222.409 10.9087 240.77 22.6922 253.448C29.0372 260.317 42.3318 265.337 49.7342 267.449C51.2697 267.881 52.6089 268.727 53.5591 269.866C54.5093 271.006 55.0214 272.379 55.0216 273.789C54.2703 317.907 46.5618 339.041 46.5618 339.041L53.9642 338.249C60.31 290.435 57.1376 271.81 55.6265 262.563Z" fill="#E1F3FF"/>
<path d="M76.9274 255.168C78.8912 249.748 82.0636 241.034 89.7684 235.222C101.703 225.976 119.681 226.765 119.681 226.765C119.681 226.765 118.321 242.484 106.387 251.727C99.8906 256.747 87.8047 259.256 81.1573 259.916C79.7671 260.083 78.4746 260.635 77.4688 261.491C76.463 262.346 75.7968 263.461 75.5675 264.671C68.6178 302.053 71.64 320.809 71.64 320.809L65.4416 319.224C68.1698 278.019 74.2085 262.697 76.9274 255.168Z" fill="#E1F3FF"/>
<path d="M66.6549 226.504C68.3172 219.9 70.8811 209.465 79.0433 201.804C91.8843 189.784 113.035 188.994 113.035 188.994C113.035 188.994 113.639 207.618 100.647 219.507C93.5466 225.979 79.7975 230.074 72.0964 231.659C70.491 231.972 69.0465 232.735 67.9828 233.832C66.9191 234.929 66.2946 236.3 66.2042 237.736C64.2025 264.576 64.5054 291.51 67.1104 318.31L59.708 316.989C57.7414 268.509 64.3888 235.618 66.6549 226.504Z" fill="#00AEEF"/>
<path d="M50.6405 296.645C50.0157 293.308 48.5162 290.144 46.2594 287.399C45.241 286.069 43.9623 284.906 42.4821 283.965C35.986 280.002 27.0725 281.191 27.0725 281.191C27.0725 281.191 28.5836 288.984 34.9285 292.947C38.7058 295.328 43.3884 295.853 46.5608 295.853C47.4792 295.862 48.3571 296.185 49.0066 296.753C49.656 297.321 50.0254 298.088 50.0357 298.891C49.8845 307.874 47.7695 320.159 47.7695 320.159L51.8483 319.502C53.0579 311.173 51.698 301.663 50.6405 296.645Z" fill="#00AEEF"/>
<path d="M89.7694 269.169C89.7694 269.169 81.4607 272.207 78.4385 278.679C76.7771 282.245 77.6872 287.661 77.9849 289.642C78.136 290.207 78.136 290.794 77.9849 291.359L74.8134 315.268H79.7984C78.8779 308.471 78.7766 301.609 79.496 294.794C79.5883 293.944 79.8774 293.119 80.3456 292.37C80.8138 291.621 81.4514 290.962 82.2195 290.435C84.7881 288.85 88.5644 286.077 90.0755 282.774C93.2442 276.433 89.7694 269.169 89.7694 269.169Z" fill="#00AEEF"/>
<path d="M53.6627 354.764H73.4534C74.0849 354.759 74.7058 354.623 75.266 354.368C79.1576 352.527 82.4063 349.799 84.6673 346.474C86.9282 343.149 88.1169 339.35 88.107 335.482V318.702C88.0885 317.796 87.6687 316.932 86.9362 316.292C86.2036 315.651 85.2154 315.284 84.1795 315.268H42.7854C41.7496 315.284 40.7613 315.651 40.0288 316.292C39.2962 316.932 38.8764 317.796 38.8579 318.702V335.477C38.8606 339.343 40.0545 343.137 42.3141 346.461C44.5737 349.784 47.8156 352.514 51.6989 354.363C52.3062 354.635 52.9804 354.773 53.6627 354.764Z" fill="#5968F6"/>
<path d="M88.108 325.042H38.8579V335.345H88.108V325.042Z" fill="#E1E1FF"/>
<path d="M88.108 325.042H38.8579V327.551H88.108V325.042Z" fill="#FFF0F2"/>
<path d="M161.421 22.8953L157.146 22.1949L140.657 99.1261L144.932 99.8265L161.421 22.8953Z" fill="white"/>
<path d="M213.366 50.8713C195.24 40.7312 171.868 55.7833 154.105 43.5829C153.715 43.2953 153.411 42.9281 153.222 42.5136C153.032 42.0992 152.962 41.6503 153.018 41.2066L159.541 10.9445C159.629 10.5617 159.821 10.2031 160.102 9.89941C160.383 9.59568 160.743 9.35584 161.153 9.20031C161.562 9.04479 162.009 8.9782 162.454 9.00625C162.9 9.03431 163.331 9.15616 163.711 9.3614C181.836 19.5016 205.208 4.44939 222.971 16.6498C223.362 16.9374 223.665 17.3047 223.855 17.7191C224.044 18.1335 224.115 18.5824 224.059 19.0261C221.885 29.1663 219.71 39.3081 217.535 49.2882C217.465 49.6799 217.283 50.0498 217.005 50.3634C216.728 50.677 216.364 50.9243 215.948 51.0822C215.532 51.2402 215.078 51.3036 214.626 51.2668C214.175 51.2299 213.741 51.0939 213.366 50.8713Z" fill="#F37434"/>
<g filter="url(#filter1_b_6_35)">
<path d="M148.491 81.2927C148.094 81.4661 147.743 81.711 147.462 82.0113C147.181 82.3116 146.975 82.6605 146.859 83.0351C146.678 83.3521 146.678 83.5106 146.859 83.6691C146.877 83.9634 146.822 84.2575 146.696 84.5312C146.571 84.8048 146.379 85.0514 146.134 85.2539C145.73 85.6134 145.421 86.0462 145.228 86.5217C144.808 87.3731 144.744 88.3264 145.047 89.215C145.228 89.8923 145.228 90.5971 145.047 91.2744C144.927 91.7021 144.991 92.1536 145.228 92.5422C145.355 92.7638 145.532 92.9607 145.748 93.1212C145.964 93.2817 146.215 93.4025 146.485 93.4764C146.756 93.5504 147.041 93.576 147.323 93.5516C147.605 93.5272 147.879 93.4534 148.127 93.3346C148.494 93.1794 148.796 92.9279 148.991 92.6154C149.186 92.3028 149.264 91.9448 149.215 91.5914C149.224 91.2497 149.35 90.9183 149.577 90.6405L149.759 90.482C150.049 90.0522 150.176 89.5527 150.121 89.0557C150.029 88.8221 150.033 88.5676 150.132 88.3362C150.231 88.1047 150.42 87.9108 150.665 87.7879C151.168 87.407 151.544 86.9141 151.752 86.3616C151.843 86.1874 151.89 85.9982 151.89 85.8069C151.89 85.6155 151.843 85.4264 151.752 85.2522C151.66 85.0186 151.664 84.7641 151.763 84.5327C151.862 84.3012 152.051 84.1073 152.296 83.9844C152.52 83.801 152.699 83.5803 152.824 83.3353C152.948 83.0904 153.015 82.8261 153.021 82.5581C152.659 81.1342 149.578 80.6588 148.491 81.2927Z" fill="#FAB9AF"/>
<path d="M148.691 81.7509L148.717 81.7393L148.743 81.7247C148.916 81.6235 149.221 81.5426 149.631 81.5221C150.031 81.5022 150.483 81.542 150.916 81.6411C151.352 81.7408 151.745 81.895 152.038 82.0881C152.303 82.2624 152.454 82.4452 152.518 82.62C152.504 82.7866 152.458 82.9518 152.378 83.1088C152.293 83.276 152.171 83.432 152.015 83.5671C151.701 83.7395 151.445 84.0053 151.304 84.3356C151.153 84.688 151.147 85.0793 151.287 85.436L151.297 85.46L151.309 85.4829C151.363 85.5878 151.39 85.698 151.39 85.8069C151.39 85.9158 151.363 86.026 151.309 86.1309L151.295 86.1572L151.285 86.185C151.116 86.6319 150.812 87.0404 150.395 87.3646C150.075 87.5368 149.816 87.8049 149.672 88.1391C149.532 88.4674 149.517 88.8295 149.629 89.1659C149.655 89.5035 149.57 89.8447 149.378 90.1509L149.248 90.2641L149.217 90.2915L149.191 90.3237C148.896 90.6829 148.727 91.1201 148.715 91.5787L148.714 91.6197L148.72 91.6602C148.752 91.8936 148.702 92.1341 148.566 92.3507L148.991 92.6154L148.566 92.3507C148.43 92.5689 148.212 92.7557 147.932 92.8742L147.922 92.8786L147.912 92.8834C147.719 92.9757 147.504 93.0341 147.28 93.0534C147.056 93.0728 146.83 93.0524 146.617 92.9941C146.404 92.9359 146.21 92.8417 146.046 92.7198L145.753 93.1146L146.046 92.7198C145.882 92.5981 145.753 92.4522 145.662 92.2934L145.662 92.2933L145.655 92.2819C145.488 92.0086 145.447 91.7001 145.528 91.4098L145.528 91.4098L145.53 91.4036C145.734 90.6416 145.734 89.8478 145.53 89.0858L145.526 89.0696L145.52 89.0538C145.261 88.2925 145.315 87.4766 145.677 86.7428L145.685 86.7263L145.692 86.7093C145.853 86.3114 146.113 85.9432 146.461 85.633C146.757 85.3863 146.994 85.0824 147.151 84.7392C147.31 84.3926 147.381 84.0169 147.359 83.6391L147.346 83.4303L147.256 83.3519C147.266 83.3326 147.278 83.3098 147.294 83.2834L147.321 83.2356L147.337 83.183C147.43 82.8843 147.595 82.6009 147.827 82.353C148.059 82.105 148.353 81.8986 148.691 81.7509Z" stroke="black"/>
</g>
<g filter="url(#filter2_b_6_35)">
<path d="M135.806 86.359C136.349 85.5666 136.893 84.7743 137.437 84.142L139.792 81.9249C141.424 80.4986 142.328 79.3901 144.323 79.2316C147.585 78.9146 151.93 78.7562 152.118 80.341C152.299 81.7673 148.131 82.7173 145.594 83.0343C145.22 83.1042 144.873 83.2578 144.587 83.48C144.302 83.7022 144.086 83.9855 143.963 84.3021C143.963 84.3021 145.232 92.5414 140.158 92.8583L138.889 95.8686L133.091 95.0762L134.359 90.0057C134.732 88.7589 135.215 87.5396 135.806 86.359Z" fill="#FAB9AF"/>
<path d="M144.362 79.73L144.362 79.7301L144.371 79.7293C145.997 79.5713 147.862 79.4563 149.334 79.5716C150.074 79.6296 150.675 79.7433 151.086 79.9156C151.505 80.091 151.606 80.2691 151.621 80.3998L151.621 80.3998L151.622 80.404C151.631 80.4798 151.6 80.651 151.238 80.9146C150.893 81.1655 150.365 81.4086 149.714 81.6303C148.421 82.0709 146.782 82.3821 145.532 82.5381L145.517 82.54L145.503 82.5428C145.054 82.6266 144.633 82.8116 144.281 83.0852C143.928 83.3591 143.655 83.7143 143.497 84.1207L143.449 84.2457L143.469 84.378L143.469 84.378L143.469 84.3782L143.469 84.3785L143.47 84.3818L143.472 84.397C143.474 84.4109 143.477 84.4324 143.481 84.4608C143.488 84.5176 143.499 84.6024 143.511 84.7113C143.535 84.9291 143.564 85.2424 143.583 85.6199C143.621 86.3778 143.621 87.3815 143.469 88.3867C143.316 89.3982 143.017 90.3682 142.489 91.0935C141.976 91.7983 141.237 92.29 140.127 92.3593L139.817 92.3786L139.697 92.6641L138.577 95.3213L133.711 94.6563L134.842 90.138C135.202 88.9339 135.668 87.7555 136.238 86.6134C136.773 85.8338 137.288 85.0848 137.799 84.4878L140.128 82.2953C140.383 82.0722 140.617 81.8613 140.837 81.6635C142.072 80.5489 142.846 79.8505 144.362 79.73Z" stroke="black"/>
</g>
<path d="M85.7911 124.705C85.7911 124.705 72.2006 119.952 67.3077 127.557C62.2362 135.321 69.6631 155.76 51.7234 158.611C33.5977 161.463 31.7898 177.149 33.2399 184.121C37.4078 204.084 70.389 224.048 93.2217 202.976C116.054 181.903 87.785 167.643 85.6146 157.027C83.2545 146.415 97.57 132.31 85.7911 124.705Z" fill="#5046AF"/>
<path d="M95.5771 161.463C95.3958 153.224 114.242 144.669 94.6708 128.032C94.4045 127.818 94.0649 127.687 93.7046 127.658C93.3443 127.63 92.9831 127.705 92.677 127.874C91.0457 128.983 85.9724 129.617 83.2535 131.677C78.3605 135.479 70.7497 145.936 73.106 151.165C78.1774 162.414 69.6631 172.079 68.938 184.754C68.3943 197.904 92.8583 210.896 104.637 207.253C106.509 206.688 108.204 205.75 109.588 204.512C110.972 203.275 112.007 201.772 112.611 200.123C113.082 198.905 113.262 197.615 113.137 196.333C113.012 195.052 112.586 193.807 111.885 192.676C107.175 185.071 95.9396 188.715 95.5771 161.463Z" fill="#41378C"/>
<g filter="url(#filter3_b_6_35)">
<path d="M126.202 279.82C130.454 259.202 130.822 238.115 127.289 217.394C126.804 214.751 125.333 212.323 123.103 210.489C120.874 208.654 118.013 207.517 114.967 207.254C112.861 207.079 110.737 207.302 108.739 207.908C106.74 208.514 104.914 209.489 103.385 210.766C101.855 212.043 100.657 213.593 99.8731 215.311C99.0888 217.028 98.736 218.873 98.8388 220.72C99.0862 224.822 99.6919 228.902 100.65 232.923C104.818 251.303 111.885 339.871 111.885 339.871C111.927 340.3 111.865 340.732 111.704 341.139C111.393 342.178 110.837 343.149 110.073 343.99C108.623 345.734 109.529 347.001 112.609 349.219C115.144 350.962 113.877 354.131 116.414 354.447C120.038 354.922 122.575 354.764 122.937 353.971C123.3 352.862 122.394 352.703 119.313 351.436C116.958 350.327 116.595 343.99 116.595 341.455C116.566 340.817 116.626 340.178 116.777 339.554L126.202 279.82Z" fill="#FAB9AF"/>
<path d="M125.712 279.719L125.71 279.73L125.708 279.742L116.286 339.457C116.129 340.117 116.065 340.792 116.095 341.466C116.096 342.752 116.188 344.997 116.58 347.073C116.776 348.113 117.052 349.133 117.441 349.975C117.825 350.806 118.354 351.537 119.1 351.889L119.111 351.894L119.123 351.899C119.51 352.058 119.863 352.2 120.182 352.328L120.296 352.373C120.57 352.483 120.817 352.582 121.04 352.674C121.554 352.885 121.913 353.046 122.161 353.193C122.413 353.342 122.478 353.438 122.498 353.483C122.511 353.513 122.532 353.584 122.475 353.774C122.452 353.804 122.367 353.886 122.112 353.974C121.825 354.073 121.409 354.148 120.864 354.186C119.778 354.262 118.275 354.187 116.479 353.951L116.476 353.951C115.968 353.887 115.697 353.695 115.505 353.441C115.289 353.154 115.151 352.758 114.99 352.223C114.973 352.167 114.956 352.11 114.938 352.053C114.639 351.048 114.248 349.742 112.897 348.81C111.349 347.695 110.451 346.886 110.084 346.192C109.912 345.868 109.868 345.59 109.917 345.318C109.967 345.037 110.125 344.712 110.451 344.318C111.254 343.432 111.843 342.405 112.177 341.302C112.36 340.83 112.431 340.327 112.384 339.827C112.383 339.826 112.383 339.824 112.383 339.823L112.383 339.815L112.379 339.767L112.363 339.576L112.303 338.831C112.251 338.178 112.173 337.217 112.072 335.988C111.871 333.53 111.578 329.998 111.214 325.703C110.487 317.111 109.473 305.464 108.329 293.243C106.043 268.821 103.231 242.042 101.138 232.813L101.138 232.813L101.137 232.807C100.185 228.814 99.5837 224.764 99.3379 220.691C99.24 218.927 99.5767 217.163 100.328 215.518C101.08 213.873 102.23 212.382 103.705 211.15C105.181 209.918 106.947 208.974 108.884 208.387C110.821 207.799 112.881 207.582 114.925 207.752C117.876 208.007 120.64 209.109 122.786 210.875C124.93 212.64 126.334 214.965 126.797 217.481C130.318 238.14 129.952 259.163 125.712 279.719Z" stroke="black"/>
</g>
<g filter="url(#filter4_b_6_35)">
<path d="M95.2174 283.621C101.017 268.569 111.345 220.245 109.17 206.777L95.2174 205.827C91.8029 205.672 88.4282 206.526 85.635 208.25C82.8419 209.973 80.7923 212.468 79.8153 215.333C76.7348 224.205 73.8348 238.94 76.5536 260.647C76.5536 260.647 78.7277 272.372 76.5536 279.976C74.5598 286.792 63.6872 329.569 61.6943 337.333C61.4054 338.2 61.0418 339.048 60.6068 339.867C60.1212 340.763 59.3706 341.528 58.4326 342.085C56.4398 343.511 56.9826 344.936 59.3389 347.63C61.3327 349.847 59.1577 352.699 61.6943 353.65C65.1373 354.918 67.4927 355.235 68.0364 354.601C68.7614 353.65 67.8552 353.333 65.1373 351.274C64.0497 350.481 64.231 347.788 64.5935 345.253C64.9689 342.495 65.8885 339.815 67.3114 337.331C72.9257 327.035 90.3216 296.138 95.2174 283.621Z" fill="#FAB9AF"/>
<path d="M76.5536 260.647C76.5536 260.647 78.7277 272.372 76.5536 279.976L67.3114 337.331C65.8885 339.815 64.9689 342.495 64.5935 345.253L64.0985 345.183C64.0984 345.183 64.0984 345.184 64.0983 345.184C63.9163 346.457 63.7747 347.801 63.822 348.938C63.8457 349.507 63.9173 350.046 64.0667 350.509C64.215 350.968 64.4534 351.393 64.8391 351.675C65.3535 352.065 65.8053 352.394 66.1895 352.674C66.3146 352.765 66.4326 352.851 66.5432 352.932C67.0034 353.269 67.3219 353.513 67.5321 353.714C67.7498 353.923 67.7731 354.015 67.7757 354.034L67.7757 354.034C67.7763 354.038 67.7865 354.099 67.652 354.28C67.6278 354.302 67.5268 354.369 67.2442 354.401C66.9523 354.434 66.5463 354.42 66.0247 354.344C64.9853 354.193 63.5724 353.809 61.8691 353.182C61.3516 352.988 61.1227 352.723 60.9972 352.426C60.8554 352.09 60.8244 351.667 60.813 351.105C60.8115 351.031 60.8104 350.955 60.8092 350.878C60.7941 349.836 60.7744 348.48 59.7132 347.298C59.131 346.633 58.6732 346.059 58.3409 345.553C58.0066 345.044 57.8169 344.629 57.7444 344.28C57.6749 343.946 57.7112 343.668 57.8473 343.402C57.9884 343.126 58.2549 342.829 58.707 342.503C59.708 341.905 60.5181 341.08 61.0463 340.106L61.0484 340.102C61.4963 339.258 61.8709 338.385 62.1687 337.491L62.1743 337.474L62.1786 337.457C62.5136 336.152 63.0987 333.861 63.8499 330.919C67.5731 316.339 75.377 285.779 77.0335 280.117L77.0343 280.114C78.1463 276.225 78.1404 271.32 77.8677 267.425C77.7308 265.47 77.5256 263.755 77.3545 262.529C77.269 261.915 77.1919 261.424 77.1361 261.084C77.1082 260.915 77.0856 260.784 77.07 260.694C77.0621 260.649 77.056 260.615 77.0518 260.592L77.048 260.571M76.5536 260.647L77.0497 260.585C77.0491 260.58 77.0486 260.576 77.048 260.571M76.5536 260.647C73.8348 238.94 76.7348 224.205 79.8153 215.333L76.5536 260.647ZM77.048 260.571C74.3414 238.946 77.2336 224.293 80.2876 215.497L80.2885 215.494C81.2248 212.749 83.1943 210.344 85.8977 208.675C88.6002 207.007 91.8726 206.177 95.1891 206.326L108.735 207.249C109.19 210.575 108.95 215.891 108.227 222.293C107.475 228.935 106.209 236.695 104.693 244.51C101.66 260.149 97.6344 275.957 94.7513 283.44C90.6093 294.029 77.4757 317.846 70.1532 331.125C68.8478 333.492 67.7271 335.524 66.875 337.087L77.048 260.571Z" stroke="black"/>
</g>
<path d="M124.208 292.178C108.08 295.822 91.0463 295.822 73.106 292.178C74.556 286.316 75.8239 281.562 76.3677 279.661C78.5418 272.056 76.3677 260.332 76.3677 260.332C73.6497 238.784 76.5489 223.89 79.6293 215.017C80.6063 212.153 82.6559 209.658 85.4491 207.934C88.2423 206.21 91.617 205.357 95.0315 205.511L108.984 206.462L114.784 206.938C117.809 207.252 120.639 208.407 122.857 210.233C125.076 212.058 126.565 214.458 127.107 217.079C130.641 237.801 130.273 258.888 126.02 279.505L124.208 292.178Z" fill="#6469D4"/>
<path d="M82.5294 259.222C80.7178 262.866 79.0865 266.668 77.458 270.471C77.2767 265.084 76.5517 260.489 76.5517 260.489C73.8338 238.941 76.733 224.047 79.8134 215.175C80.7904 212.31 82.84 209.816 85.6332 208.092C88.4263 206.368 91.8011 205.515 95.2155 205.669L100.287 205.986L109.167 206.62L114.965 207.095C117.99 207.409 120.821 208.564 123.039 210.39C125.258 212.216 126.748 214.616 127.289 217.238C127.652 219.139 128.014 221.516 128.377 223.889C105.181 223.255 90.8672 241.954 82.5294 259.222Z" fill="#5159BF"/>
<path d="M135.988 128.825C138.162 119.319 140.337 94.7601 140.337 94.7601C139.25 93.4922 134.719 91.7498 133.27 93.4922L124.39 127.241C114.786 137.856 106.812 147.523 103.188 152.275C102.472 153.15 101.553 153.885 100.492 154.43C99.4307 154.976 98.2504 155.321 97.0271 155.443C91.7763 155.753 86.5638 156.442 81.4428 157.503C57.7039 162.89 67.4898 170.495 67.4898 170.495C70.3631 173.05 72.7491 175.992 74.557 179.209C77.6374 184.912 81.4428 192.201 83.7992 196.479C84.7054 199.172 81.9866 207.253 80.9 209.788L78.7259 215.491C78.5711 215.891 78.5976 216.327 78.7999 216.711C79.0023 217.094 79.365 217.394 79.8134 217.551C90.5047 220.719 112.07 221.195 125.841 217.392C126.213 217.314 126.558 217.159 126.847 216.941C127.137 216.722 127.362 216.446 127.504 216.136C127.646 215.825 127.701 215.49 127.664 215.157C127.627 214.824 127.499 214.504 127.291 214.223L117.141 189.983C114.423 184.912 114.967 183.645 116.778 180.635C117.345 179.809 117.702 178.887 117.827 177.931C117.952 176.975 117.842 176.006 117.503 175.09C116.785 173.428 115.875 171.836 114.786 170.336C113.833 168.976 113.391 167.389 113.521 165.799C113.651 164.208 114.346 162.692 115.511 161.464C123.303 152.908 133.994 137.697 135.988 128.825Z" fill="#00AEEF"/>
<g filter="url(#filter5_b_6_35)">
<path d="M79.2678 126.607C72.2006 128.35 70.9318 133.422 73.4685 141.659C74.49 144.475 76.3695 146.995 78.9052 148.947C79.6033 149.546 80.1557 150.262 80.5293 151.053C80.9029 151.843 81.09 152.691 81.0794 153.546L80.8981 158.616C81.2606 163.215 84.3411 164.954 87.9653 164.954C88.9266 164.931 89.8725 164.737 90.7447 164.383C91.6169 164.029 92.3969 163.522 93.0367 162.894C94.4867 161.468 93.943 159.25 93.0367 157.508L92.1304 156.24C91.8618 155.846 91.6862 155.409 91.6138 154.955C91.5414 154.501 91.5737 154.039 91.7089 153.596C91.844 153.153 92.0792 152.738 92.4007 152.376C92.7221 152.013 93.1233 151.711 93.5805 151.486C95.0875 150.811 96.439 149.898 97.5672 148.793C98.4734 147.842 99.0172 140.554 95.2118 133.109C91.2279 125.339 86.3349 124.864 79.2678 126.607Z" fill="#FAB9AF"/>
<path d="M79.2308 148.568L79.2208 148.559L79.2103 148.551C76.748 146.655 74.9305 144.216 73.9427 141.5C72.6863 137.416 72.4103 134.222 73.2385 131.864C74.0501 129.553 75.9646 127.937 79.3875 127.092C82.9015 126.226 85.7737 125.94 88.2372 126.765C90.6762 127.581 92.8108 129.522 94.7668 133.338C96.6356 136.994 97.4359 140.611 97.6579 143.426C97.7689 144.833 97.7345 146.031 97.6206 146.925C97.5636 147.373 97.4877 147.735 97.4045 148.004C97.3193 148.28 97.2418 148.406 97.2088 148.444C96.1265 149.502 94.8277 150.379 93.3759 151.03L93.3679 151.034L93.36 151.038C92.8476 151.289 92.3934 151.63 92.0267 152.044C91.6597 152.457 91.3877 152.935 91.2306 153.45C91.0735 153.965 91.0356 154.504 91.12 155.034C91.2044 155.563 91.4088 156.069 91.7173 156.522L91.7172 156.522L91.7236 156.531L92.6091 157.769C93.0371 158.599 93.361 159.509 93.4216 160.355C93.482 161.201 93.2806 161.953 92.6862 162.538C92.0954 163.118 91.3713 163.589 90.5566 163.92C89.7435 164.25 88.8596 164.432 87.9595 164.454C86.2235 164.453 84.6721 164.035 83.5199 163.118C82.3831 162.213 81.5759 160.776 81.3988 158.605L81.5791 153.564L81.5792 153.564L81.5793 153.552C81.5909 152.619 81.3867 151.696 80.9813 150.839C80.5761 149.982 79.9793 149.21 79.2308 148.568Z" stroke="black"/>
</g>
<path d="M95.3958 142.609C95.5017 142.805 95.5572 143.018 95.5584 143.234C95.5595 143.451 95.5064 143.665 95.4027 143.861C95.2989 144.058 95.1472 144.232 94.9581 144.371C94.769 144.511 94.5472 144.612 94.3083 144.669C94.094 144.71 93.8724 144.715 93.6562 144.682C93.44 144.649 93.2333 144.579 93.0481 144.476C92.8629 144.373 92.7028 144.239 92.5769 144.081C92.451 143.924 92.3618 143.747 92.3145 143.559L90.6832 137.38C90.6562 137.157 90.7204 136.932 90.8644 136.746C91.0457 136.588 91.2269 136.429 91.4082 136.429C91.7443 136.435 92.0664 136.548 92.3145 136.746L95.3958 142.609Z" fill="#FA968C"/>
<g filter="url(#filter6_b_6_35)">
<path d="M77.0936 142.134C77.6374 144.035 78.3624 146.412 76.5498 146.887C74.557 147.363 71.6569 144.352 71.1131 142.453C70.5693 140.554 71.6569 139.76 73.4685 139.284C75.2801 138.809 76.5498 140.233 77.0936 142.134Z" fill="#FAB9AF"/>
<path d="M76.6129 142.271C76.622 142.303 76.6311 142.335 76.6403 142.367C76.9106 143.311 77.1855 144.271 77.2055 145.058C77.2157 145.458 77.1567 145.758 77.0394 145.967C76.9336 146.157 76.7582 146.314 76.4285 146.402C76.0739 146.485 75.6365 146.423 75.1363 146.204C74.6371 145.986 74.1148 145.629 73.6211 145.188C72.621 144.295 71.8308 143.144 71.5938 142.316C71.354 141.478 71.4961 140.995 71.785 140.663C72.1112 140.287 72.7089 140.001 73.5954 139.768C74.3292 139.575 74.9312 139.761 75.4277 140.195C75.9436 140.645 76.3575 141.378 76.6129 142.271Z" stroke="black"/>
</g>
<path d="M69.8443 132.785C75.6436 123.12 87.9699 119.952 94.127 123.279C97.57 125.022 102.1 132.785 94.6708 132.944C92.8791 132.937 91.1243 132.498 89.5994 131.676C89.1078 131.422 88.5365 131.311 87.9681 131.359L83.0751 132.785C82.1174 133.069 81.2341 133.517 80.4768 134.103C79.7195 134.689 79.1035 135.402 78.6648 136.198C78.2261 136.995 77.9735 137.86 77.9217 138.743C77.8699 139.626 78.0201 140.51 78.3634 141.341L78.9071 142.609C78.9538 142.757 78.9513 142.913 78.9002 143.06C78.849 143.206 78.7511 143.337 78.618 143.437C78.485 143.537 78.3221 143.601 78.1487 143.623C77.9752 143.645 77.7982 143.623 77.6383 143.56L77.2758 143.085C76.9003 142.469 76.3853 141.927 75.7622 141.491C75.1391 141.055 74.421 140.735 73.6516 140.55C70.3881 139.598 66.4014 138.489 69.8443 132.785Z" fill="#5046AF"/>
<g filter="url(#filter7_b_6_35)">
<path d="M81.0794 249.398C80.2785 248.126 79.37 246.908 78.3615 245.754C78.1802 245.596 77.2739 245.12 77.0927 244.962C76.3677 244.486 75.2801 244.011 75.0998 243.219L73.831 240.368C73.2872 238.941 72.0184 238.15 70.3881 238.783C68.7568 239.417 68.3952 240.842 69.3005 242.268L70.2068 244.328C70.8114 245.466 71.0615 246.723 70.9318 247.972C71.1131 250.507 72.9247 253.043 74.7373 254.943C75.8248 256.211 78.1802 256.37 81.2606 256.37C82.7107 256.37 85.2473 256.053 83.7963 254.943C82.5275 253.993 77.998 253.676 77.4543 249.557C77.4543 249.398 77.4542 248.923 77.6355 248.764C78.3605 248.447 79.2668 250.032 79.8096 250.507C80.0919 250.804 80.4567 251.033 80.8691 251.172C81.2815 251.311 81.7277 251.354 82.1651 251.299C82.7107 250.983 81.8044 250.508 81.0794 249.398Z" fill="#FAB9AF"/>
<path d="M80.6562 249.665L80.6562 249.665L80.6608 249.672C80.9494 250.113 81.2835 250.484 81.5196 250.746C81.5405 250.769 81.5607 250.791 81.58 250.813C81.3914 250.796 81.2058 250.758 81.0285 250.698C80.6885 250.584 80.3949 250.397 80.1723 250.163L80.1563 250.146L80.1388 250.13C80.0401 250.044 79.9084 249.891 79.7294 249.673C79.7069 249.645 79.6839 249.617 79.6603 249.588C79.5086 249.403 79.3356 249.191 79.1578 248.999C78.9556 248.781 78.7156 248.552 78.4524 248.402C78.185 248.249 77.8183 248.139 77.4352 248.306L77.3645 248.337L77.3064 248.388C77.1725 248.505 77.1013 248.652 77.0614 248.76C77.0195 248.874 76.9961 248.991 76.9819 249.09C76.9542 249.284 76.9542 249.471 76.9543 249.552V249.557V249.59L76.9586 249.622C77.2595 251.902 78.6804 253.125 80.1211 253.881C80.8049 254.24 81.5073 254.501 82.0982 254.721C82.123 254.73 82.1476 254.739 82.1721 254.748C82.8093 254.986 83.2483 255.158 83.4947 255.342C83.5818 255.409 83.6395 255.463 83.6768 255.504C83.6248 255.533 83.5517 255.566 83.4539 255.6C82.9009 255.79 81.9725 255.87 81.2606 255.87C79.7202 255.87 78.4012 255.829 77.3395 255.64C76.2727 255.449 75.5493 255.122 75.1168 254.618L75.1082 254.608L75.0991 254.598C73.311 252.723 71.6188 250.315 71.4337 247.978C71.5627 246.649 71.2935 245.315 70.6571 244.11L69.7582 242.067L69.7429 242.032L69.7227 242C69.3242 241.373 69.2431 240.809 69.3726 240.37C69.4999 239.939 69.8614 239.524 70.569 239.249C71.2714 238.976 71.8467 239.025 72.2919 239.25C72.746 239.479 73.1259 239.922 73.3638 240.546L73.3686 240.558L73.3742 240.571L74.6251 243.382C74.7722 243.939 75.2071 244.332 75.5998 244.615C75.8107 244.767 76.0358 244.905 76.2439 245.029C76.2867 245.055 76.3286 245.08 76.3695 245.104C76.5246 245.197 76.6662 245.281 76.7962 245.365C76.8777 245.43 76.9877 245.5 77.0809 245.557C77.1988 245.629 77.3386 245.71 77.4723 245.788L77.4753 245.79C77.6126 245.87 77.7435 245.946 77.8512 246.012C77.905 246.045 77.9495 246.073 77.984 246.096C77.9976 246.106 78.008 246.113 78.0156 246.118C78.9951 247.242 79.8776 248.428 80.6562 249.665ZM83.758 255.447C83.7581 255.447 83.7578 255.447 83.7571 255.448L83.758 255.447Z" stroke="black"/>
</g>
<path d="M67.6702 162.573C70.0255 160.513 75.4651 159.879 80.5366 160.83C85.4295 161.622 74.9185 191.092 65.3148 204.876C64.7724 205.592 64.411 206.4 64.2547 207.247C64.0984 208.094 64.1508 208.961 64.4085 209.789L74.7392 241.794C73.4704 244.011 71.2962 244.329 68.9399 244.646L51.543 211.372C49.9249 208.243 49.5423 204.731 50.4555 201.391C53.7162 191.092 60.7833 168.91 67.6702 162.573Z" fill="#00AEEF"/>
<g filter="url(#filter8_b_6_35)">
<path d="M372.109 334.639L374.827 343.987L375.37 344.938L377.363 347.473C377.66 347.84 377.85 348.264 377.917 348.71C377.984 349.155 377.926 349.608 377.747 350.03C377.569 350.451 377.276 350.828 376.893 351.128C376.51 351.428 376.049 351.642 375.551 351.751C375.551 351.751 371.564 353.019 367.577 354.127C363.409 355.237 358.335 354.286 358.335 353.335C358.335 351.275 360.509 352.859 364.315 350.642L368.12 348.265C371.382 346.048 368.483 340.343 366.489 337.174C365.764 336.065 366.489 333.213 367.939 332.896L368.845 332.738C369.554 332.688 370.262 332.849 370.854 333.194C371.446 333.539 371.888 334.048 372.109 334.639Z" fill="#FAB9AF"/>
<path d="M375.399 351.274L375.551 351.751L375.399 351.274L375.399 351.274L375.399 351.275L375.396 351.275L375.388 351.278L375.354 351.289L375.221 351.331C375.105 351.367 374.934 351.421 374.716 351.489C374.281 351.625 373.66 351.818 372.913 352.045C371.421 352.5 369.433 353.092 367.446 353.645C365.437 354.179 363.194 354.219 361.454 354.007C360.582 353.901 359.861 353.735 359.371 353.548C359.123 353.454 358.96 353.365 358.869 353.294C358.855 353.283 358.844 353.273 358.836 353.266C358.847 352.902 358.944 352.818 359.012 352.773C359.074 352.731 359.174 352.689 359.341 352.649C359.507 352.609 359.709 352.578 359.965 352.543C360.013 352.537 360.063 352.53 360.113 352.523C361.141 352.386 362.666 352.181 364.566 351.074L364.573 351.07L364.58 351.066L368.385 348.689L368.393 348.684L368.401 348.679C370.316 347.377 370.336 345.089 369.758 342.946C369.172 340.773 367.916 338.504 366.912 336.908L366.912 336.908L366.907 336.901C366.796 336.73 366.715 336.446 366.705 336.069C366.696 335.7 366.755 335.283 366.876 334.884C366.999 334.483 367.177 334.122 367.391 333.853C367.602 333.585 367.824 333.436 368.037 333.387L368.905 333.235C369.509 333.198 370.107 333.338 370.602 333.626C371.098 333.915 371.455 334.331 371.634 334.798L374.347 344.127L374.363 344.184L374.393 344.235L374.936 345.186L374.955 345.218L374.977 345.247L376.97 347.782L376.97 347.782L376.975 347.787C377.218 348.088 377.37 348.431 377.423 348.784C377.476 349.137 377.43 349.497 377.287 349.835C377.144 350.173 376.905 350.483 376.584 350.735C376.264 350.986 375.873 351.169 375.444 351.262L375.421 351.267L375.399 351.274ZM358.812 353.24C358.812 353.24 358.813 353.241 358.815 353.244C358.812 353.241 358.812 353.24 358.812 353.24Z" stroke="black"/>
</g>
<g filter="url(#filter9_b_6_35)">
<path d="M369.752 254.151C369.027 252.409 368.302 250.665 367.94 249.873C367.623 249.471 367.259 249.099 366.852 248.764C366.189 248.156 365.639 247.461 365.221 246.704L364.677 243.694C364.496 242.268 363.408 241.159 361.778 241.477C359.966 241.794 359.423 243.22 359.785 244.804L360.148 247.021C360.45 248.282 360.388 249.589 359.966 250.824C359.604 253.517 360.691 256.369 361.959 258.588C362.684 260.014 365.04 260.647 368.12 261.281C369.57 261.598 372.107 261.756 370.838 260.33C369.932 259.221 365.22 257.954 365.945 253.834C365.945 253.676 366.126 253.042 366.308 253.042C367.214 252.883 367.576 254.468 368.119 255.259C368.844 256.368 369.932 256.685 370.475 256.527C371.02 256.053 370.296 255.419 369.752 254.151Z" fill="#FAB9AF"/>
<path d="M369.291 254.343L369.291 254.343L369.293 254.348C369.439 254.688 369.595 254.982 369.734 255.233C369.772 255.301 369.808 255.365 369.841 255.425C369.935 255.592 370.011 255.727 370.071 255.853C370.119 255.952 370.144 256.019 370.156 256.064C370.011 256.061 369.81 256.022 369.574 255.914C369.229 255.755 368.849 255.461 368.538 254.985L368.538 254.985L368.531 254.976C368.42 254.813 368.31 254.598 368.185 254.339C368.166 254.301 368.148 254.262 368.129 254.222C368.024 254.004 367.908 253.763 367.784 253.546C367.638 253.292 367.455 253.02 367.213 252.823C366.96 252.616 366.634 252.486 366.25 252.545C366.106 252.559 365.997 252.624 365.93 252.677C365.854 252.737 365.799 252.806 365.762 252.86C365.688 252.969 365.631 253.095 365.591 253.2C365.549 253.311 365.515 253.425 365.49 253.526C365.473 253.598 365.453 253.691 365.447 253.779C365.057 256.071 366.195 257.573 367.466 258.6C368.07 259.089 368.721 259.484 369.26 259.811C369.283 259.826 369.307 259.84 369.329 259.854C369.611 260.025 369.853 260.173 370.052 260.312C370.257 260.454 370.383 260.563 370.451 260.646L370.457 260.655L370.464 260.662C370.562 260.772 370.619 260.855 370.65 260.912C370.598 260.931 370.524 260.95 370.424 260.965C369.859 261.05 368.934 260.947 368.227 260.792L368.227 260.792L368.221 260.791C366.679 260.474 365.359 260.164 364.338 259.766C363.307 259.363 362.682 258.906 362.405 258.361L362.4 258.35L362.393 258.34C361.152 256.168 360.134 253.454 360.456 250.937C360.891 249.634 360.954 248.254 360.638 246.923L360.279 244.723L360.276 244.708L360.273 244.693C360.109 243.977 360.164 243.357 360.407 242.901C360.641 242.463 361.085 242.106 361.864 241.969L361.864 241.969L361.874 241.968C362.55 241.836 363.075 242.002 363.451 242.315C363.837 242.637 364.104 243.148 364.181 243.757L364.183 243.77L364.185 243.783L364.729 246.793L364.744 246.874L364.783 246.946C365.228 247.752 365.813 248.489 366.514 249.132L366.524 249.141L366.534 249.149C366.898 249.449 367.225 249.78 367.51 250.136C367.873 250.936 368.57 252.611 369.276 254.307L369.291 254.343Z" stroke="black"/>
</g>
<path d="M379.357 158.455C374.464 171.764 362.142 196.802 343.839 205.671C331.517 211.691 301.617 220.564 301.617 220.564C301.617 220.564 300.711 219.455 299.986 218.505C299.485 217.766 299.119 216.965 298.898 216.128C298.898 216.128 336.047 199.492 341.12 194.58C346.013 189.827 362.684 158.931 367.759 154.181C373.373 148.63 382.075 151.006 379.357 158.455Z" fill="#00AEEF"/>
<g filter="url(#filter10_b_6_35)">
<path d="M363.228 223.255L374.826 151.006L406.538 147.203L423.21 222.621L363.228 223.255Z" fill="#FAB9AF"/>
<path d="M406.148 147.754L422.589 222.128L363.816 222.749L375.26 151.458L406.148 147.754Z" stroke="black"/>
</g>
<g filter="url(#filter11_b_6_35)">
<path d="M431.183 332.738L434.445 342.086C434.593 342.468 434.775 342.839 434.989 343.196L437.344 346.206C437.676 346.637 437.89 347.129 437.967 347.645C438.045 348.16 437.984 348.684 437.791 349.175C437.598 349.667 437.277 350.112 436.853 350.477C436.43 350.841 435.915 351.115 435.35 351.276C435.35 351.276 430.82 352.703 426.108 353.97C421.215 355.396 415.236 354.128 415.236 353.019C415.236 350.484 417.953 352.543 422.303 349.85C423.824 349.044 425.277 348.144 426.652 347.157C430.457 344.463 427.196 337.967 424.839 334.165C424.636 333.85 424.522 333.497 424.507 333.136C424.492 332.774 424.578 332.415 424.755 332.089C424.933 331.762 425.198 331.478 425.529 331.26C425.859 331.043 426.244 330.897 426.652 330.838L427.739 330.679C428.496 330.628 429.25 330.804 429.876 331.178C430.503 331.553 430.964 332.103 431.183 332.738Z" fill="#FAB9AF"/>
<path d="M430.711 332.903L430.711 332.902C430.533 332.388 430.154 331.927 429.62 331.607C429.089 331.29 428.445 331.136 427.792 331.177L426.725 331.332C426.725 331.332 426.724 331.332 426.724 331.332C426.386 331.382 426.07 331.502 425.804 331.678C425.538 331.853 425.331 332.078 425.194 332.328C425.059 332.577 424.996 332.847 425.007 333.116C425.017 333.384 425.102 333.651 425.259 333.893L425.264 333.901L425.264 333.901C426.449 335.813 427.886 338.44 428.54 340.951C429.188 343.44 429.111 346.028 426.942 347.564C426.942 347.564 426.941 347.565 426.941 347.565L426.652 347.157C425.277 348.144 423.824 349.044 422.303 349.85L430.711 332.903ZM430.711 332.903L433.973 342.251L433.976 342.259L433.979 342.267C434.137 342.676 434.332 343.072 434.56 343.453L434.576 343.479L434.595 343.504L436.948 346.511C436.948 346.512 436.949 346.512 436.949 346.513C437.231 346.879 437.408 347.292 437.473 347.719C437.537 348.146 437.487 348.581 437.326 348.992C437.164 349.404 436.893 349.783 436.527 350.098C436.161 350.413 435.712 350.653 435.213 350.796L435.213 350.795L435.2 350.799L435.35 351.276L435.2 350.799L435.2 350.8L435.199 350.8L435.197 350.8L435.187 350.803L435.149 350.816L434.998 350.863C434.865 350.904 434.67 350.965 434.422 351.041C433.924 351.194 433.212 351.412 432.353 351.669C430.634 352.183 428.328 352.855 425.978 353.487L425.978 353.487L425.968 353.49C423.604 354.179 420.958 354.22 418.902 353.949C417.874 353.814 417.017 353.604 416.431 353.371C416.135 353.254 415.933 353.141 415.814 353.046C415.772 353.012 415.748 352.988 415.736 352.973C415.743 352.47 415.877 352.331 415.997 352.255C416.087 352.197 416.221 352.146 416.429 352.101C416.638 352.057 416.886 352.026 417.194 351.991C417.238 351.986 417.282 351.981 417.327 351.976C418.557 351.838 420.363 351.635 422.552 350.284L430.711 332.903ZM415.724 352.957C415.724 352.957 415.724 352.957 415.725 352.958C415.724 352.957 415.724 352.957 415.724 352.957Z" stroke="black"/>
</g>
<path d="M398.566 223.889L363.41 221.354C363.41 221.354 350.906 260.331 347.645 277.759C345.289 290.276 367.034 338.759 367.034 338.759C369.209 339.551 371.202 338.601 373.558 338.125C373.558 338.125 367.034 295.344 369.209 284.889C371.564 273.956 390.23 251.933 391.498 246.229C393.05 238.605 395.416 231.126 398.566 223.889Z" fill="#5046AF"/>
<path d="M391.316 224.363C387.692 241.316 379.537 266.825 395.122 290.75C410.706 314.674 427.197 339.55 427.197 339.55C429.294 339.529 431.327 338.918 432.996 337.807C432.996 337.807 430.278 327.033 426.291 314.358C421.761 299.94 415.961 282.827 417.593 273.958C420.673 257.322 424.116 235.14 423.03 224.366C422.122 213.432 393.128 215.33 391.316 224.363Z" fill="#5046AF"/>
<path d="M363.591 224.206C362.976 223.977 362.475 223.564 362.176 223.042C361.877 222.52 361.8 221.921 361.959 221.354L375.007 151.006L406.719 147.203L423.754 221.516C423.832 221.849 423.833 222.193 423.756 222.527C423.68 222.861 423.527 223.177 423.307 223.458C423.087 223.739 422.805 223.979 422.477 224.162C422.149 224.345 421.782 224.469 421.398 224.526C409.501 226.449 397.434 227.456 385.335 227.536C373.373 227.533 366.672 225.474 363.591 224.206Z" fill="#D2F0FF"/>
<path d="M399.472 165.744C403.277 174.933 409.438 192.996 405.995 208.84C401.102 231.181 394.579 240.207 402.915 245.44C411.251 250.672 427.016 241.954 427.56 239.102C428.104 236.25 424.48 200.601 420.493 185.236C416.506 169.871 405.271 147.685 405.271 147.685L399.472 148.161C399.291 147.996 397.659 161.463 399.472 165.744Z" fill="#00AEEF"/>
<path d="M380.444 150.372C380.444 150.372 377.908 160.354 379.9 175.406C381.893 190.3 386.242 235.772 370.658 242.744C365.765 244.961 354.53 233.711 354.53 231.653C354.53 228.009 358.335 216.125 361.778 205.193C364.677 196.479 367.577 167.326 368.483 156.077C368.602 154.835 369.208 153.668 370.199 152.773C371.19 151.878 372.504 151.309 373.919 151.165L380.444 150.372Z" fill="#00AEEF"/>
<path d="M403.458 119.793C403.215 122.391 404.052 124.978 405.813 127.082C408.712 130.092 404.544 132.944 403.458 135.004C402.551 137.063 403.639 140.233 400.922 141.655C398.205 143.077 390.412 143.397 389.143 141.021C387.872 138.33 394.578 118.367 403.458 119.793Z" fill="#41378C"/>
<path d="M372.104 125.338C371.742 138.964 386.238 141.657 394.755 141.657C403.273 141.657 403.635 125.338 403.635 119.317C403.635 113.455 396.931 112.501 388.595 112.501C381.89 112.501 375.547 117.1 373.01 121.374C372.104 122.486 372.104 124.071 372.104 125.338Z" fill="#41378C"/>
<g filter="url(#filter12_b_6_35)">
<path d="M387.873 117.734C394.94 117.734 397.658 122.168 397.658 130.25C397.498 133.094 396.567 135.864 394.94 138.331C394.467 139.042 394.159 139.829 394.035 140.644C393.91 141.46 393.972 142.29 394.215 143.085L395.847 147.683C396.934 151.961 394.578 154.334 391.135 155.13C390.247 155.355 389.312 155.401 388.401 155.264C387.49 155.126 386.626 154.81 385.876 154.337C384.063 153.386 383.882 151.169 384.244 149.425L384.607 148.158C384.747 147.731 384.788 147.284 384.726 146.843C384.664 146.403 384.502 145.978 384.248 145.593C383.995 145.209 383.655 144.873 383.25 144.606C382.844 144.338 382.382 144.145 381.889 144.038C376.452 142.929 375.728 138.017 374.282 130.254C373.013 122.332 380.805 117.734 387.873 117.734Z" fill="#FAB9AF"/>
<path d="M393.737 143.231L393.741 143.241L393.744 143.252L395.368 147.828C395.875 149.845 395.561 151.341 394.784 152.42C393.994 153.518 392.67 154.262 391.022 154.643L391.022 154.642L391.012 154.645C390.189 154.854 389.321 154.897 388.475 154.769C387.63 154.642 386.832 154.348 386.142 153.914L386.125 153.904L386.108 153.895C385.354 153.499 384.929 152.841 384.729 152.055C384.528 151.264 384.563 150.362 384.73 149.545L385.085 148.304C385.246 147.808 385.293 147.288 385.221 146.774C385.149 146.257 384.959 145.762 384.666 145.318C384.373 144.874 383.984 144.491 383.525 144.188C383.066 143.886 382.546 143.669 381.996 143.549L381.996 143.549L381.989 143.548C380.702 143.285 379.719 142.804 378.937 142.129C378.152 141.452 377.546 140.559 377.046 139.438C376.101 137.318 375.575 134.479 374.916 130.926C374.869 130.677 374.822 130.425 374.775 130.168C374.176 126.415 375.71 123.458 378.264 121.413C380.836 119.354 384.436 118.234 387.873 118.234C391.294 118.234 393.569 119.3 395.014 121.258C396.48 123.246 397.157 126.24 397.158 130.236C397.001 132.983 396.1 135.663 394.524 138.055C394.012 138.825 393.676 139.679 393.541 140.569C393.405 141.46 393.472 142.365 393.737 143.231Z" stroke="black"/>
</g>
<path d="M371.383 114.09L375.369 115.199C376.831 115.674 378.439 115.674 379.9 115.199L388.057 113.139C392.95 113.139 401.105 115.515 400.018 121.695L399.111 126.129C398.938 126.967 398.454 127.732 397.733 128.305C397.012 128.878 396.095 129.227 395.125 129.298C395.032 129.571 394.841 129.812 394.58 129.983C394.318 130.154 394.001 130.247 393.674 130.249C393.46 130.249 393.247 130.213 393.049 130.142C392.851 130.07 392.67 129.965 392.519 129.833C392.367 129.7 392.247 129.543 392.165 129.369C392.084 129.196 392.042 129.01 392.043 128.822C392.01 127.867 391.62 126.947 390.933 126.203C390.246 125.459 389.299 124.932 388.238 124.703C385.373 124.147 382.404 124.147 379.539 124.703C373.921 125.97 367.942 122.959 367.398 117.887V116.936C367.577 115.198 369.389 113.614 371.383 114.09Z" fill="#41378C"/>
<g filter="url(#filter13_b_6_35)">
<path d="M393.853 130.409C393.853 132.31 394.578 133.894 396.752 133.894C398.745 133.894 400.195 131.36 400.195 129.46C400.195 127.561 398.926 127.084 396.752 127.084C394.759 127.081 393.853 128.508 393.853 130.409Z" fill="#FAB9AF"/>
<path d="M396.752 127.584H396.752C397.828 127.584 398.567 127.707 399.03 127.988C399.434 128.232 399.695 128.64 399.695 129.46C399.695 130.298 399.37 131.307 398.812 132.102C398.251 132.901 397.523 133.394 396.752 133.394C395.803 133.394 395.24 133.058 394.894 132.574C394.527 132.06 394.353 131.309 394.353 130.409C394.353 129.529 394.564 128.822 394.945 128.345C395.314 127.885 395.886 127.583 396.752 127.584Z" stroke="black"/>
</g>
<path d="M376.637 136.112C376.583 136.324 376.585 136.544 376.642 136.755C376.7 136.966 376.811 137.163 376.968 137.33C377.125 137.498 377.324 137.633 377.549 137.723C377.775 137.814 378.021 137.859 378.269 137.855C378.674 137.864 379.068 137.738 379.371 137.503C379.674 137.267 379.863 136.94 379.9 136.587V130.566C379.855 130.328 379.728 130.107 379.537 129.932C379.451 129.836 379.342 129.757 379.216 129.702C379.091 129.647 378.953 129.618 378.812 129.616C378.45 129.616 378.087 129.774 378.087 130.091L376.637 136.112Z" fill="#FA968C"/>
<path d="M391.135 161.146C391.335 161.177 391.523 161.251 391.681 161.361C391.84 161.472 391.964 161.616 392.041 161.78C393.129 164.79 398.021 178.733 399.108 186.339C400.015 192.518 397.116 203.292 395.484 208.838C394.812 211.031 393.186 212.907 390.954 214.067L389.866 214.701C389.406 214.919 388.868 214.975 388.363 214.857C387.857 214.739 387.423 214.456 387.148 214.067L386.423 212.482C386.095 211.953 385.894 211.371 385.831 210.772C385.769 210.172 385.847 209.568 386.061 208.996C388.054 204.562 392.765 192.994 392.222 185.389C392.04 182.695 389.141 166.217 388.235 162.098C388.208 161.981 388.211 161.861 388.244 161.746C388.278 161.631 388.34 161.524 388.427 161.432C388.514 161.341 388.623 161.268 388.747 161.219C388.871 161.169 389.005 161.145 389.141 161.147L391.135 161.146Z" fill="#AFE6FF"/>
<path d="M390.048 159.087C390.247 159.117 390.435 159.191 390.594 159.302C390.752 159.413 390.876 159.557 390.954 159.721C392.041 162.731 396.572 176.832 397.477 184.437C398.202 190.616 395.122 201.39 393.309 206.777C392.615 208.92 390.989 210.74 388.779 211.848L387.691 212.323C387.231 212.542 386.693 212.598 386.188 212.48C385.682 212.362 385.248 212.079 384.973 211.689L384.067 210.263C383.727 209.735 383.533 209.145 383.502 208.539C383.47 207.934 383.602 207.33 383.886 206.777C385.88 202.499 390.953 190.93 390.772 183.328C390.772 180.635 388.054 164.157 387.51 159.879C387.49 159.649 387.573 159.42 387.742 159.243C387.911 159.065 388.153 158.952 388.416 158.928L390.048 159.087Z" fill="#5159BF"/>
<path d="M387.331 159.566H390.411C390.532 159.572 390.653 159.556 390.766 159.518C390.88 159.481 390.983 159.423 391.068 159.348C391.154 159.273 391.22 159.183 391.263 159.084C391.306 158.985 391.325 158.879 391.317 158.773V156.08C391.324 155.974 391.306 155.868 391.263 155.769C391.22 155.67 391.154 155.58 391.068 155.505C390.982 155.431 390.879 155.372 390.766 155.335C390.653 155.297 390.532 155.281 390.411 155.287L387.693 154.97C387.376 155.016 387.083 155.147 386.856 155.345C386.628 155.544 386.477 155.799 386.424 156.077V158.77C386.439 158.976 386.539 159.171 386.705 159.317C386.872 159.464 387.095 159.552 387.331 159.566Z" fill="#5159BF"/>
<path d="M395.666 147.045L400.737 147.837C400.737 147.837 399.649 155.126 395.666 160.512C395.584 160.587 395.485 160.647 395.376 160.688C395.267 160.729 395.15 160.75 395.031 160.75C394.912 160.75 394.795 160.729 394.686 160.688C394.577 160.647 394.479 160.587 394.397 160.512L390.773 156.078C390.552 155.828 390.432 155.522 390.432 155.207C390.432 154.891 390.552 154.585 390.773 154.335L395.666 147.045Z" fill="white"/>
<path d="M394.756 166.089L367.305 248.855C367.179 249.234 366.887 249.554 366.492 249.744C366.097 249.935 365.632 249.981 365.199 249.872L145.29 194.112C144.857 194.003 144.491 193.747 144.273 193.402C144.055 193.056 144.002 192.65 144.127 192.271L171.579 109.505C171.704 109.126 171.996 108.806 172.391 108.616C172.786 108.425 173.251 108.379 173.685 108.488L393.595 164.245C393.81 164.299 394.01 164.39 394.185 164.512C394.359 164.635 394.505 164.786 394.612 164.957C394.72 165.128 394.788 165.316 394.813 165.511C394.838 165.705 394.818 165.902 394.756 166.089Z" fill="white"/>
<path d="M385.263 167.34L179.181 115.088C177.978 114.784 176.577 115.025 176.228 116.078L152.211 188.486C152.097 189.035 152.211 189.6 152.533 190.081C152.855 190.561 153.364 190.925 153.967 191.105L360.048 243.357C360.331 243.407 360.623 243.407 360.907 243.357C361.19 243.307 361.459 243.209 361.699 243.068C361.939 242.926 362.144 242.744 362.302 242.533C362.461 242.322 362.57 242.085 362.622 241.836L386.639 169.428C386.73 169.212 386.766 168.981 386.744 168.752C386.722 168.523 386.642 168.301 386.511 168.102C386.38 167.902 386.2 167.731 385.984 167.599C385.768 167.468 385.522 167.379 385.263 167.34ZM361.332 241.509C361.22 241.847 360.873 242.341 360.424 242.227L154.347 189.975C154.086 189.882 153.866 189.72 153.715 189.512C153.565 189.304 153.493 189.06 153.509 188.814L177.529 116.407C177.622 116.129 178.281 116.084 178.812 116.22L384.89 168.472C385.443 168.611 385.457 168.779 385.351 169.102L361.332 241.509Z" fill="#1E2D64"/>
<path d="M191.77 129.853C190.944 128.953 189.785 128.332 188.493 128.097L184.38 127.054L180.638 138.331L183.332 139.014L184.671 134.976L185.878 135.282C187.181 135.686 188.607 135.669 189.897 135.234C190.455 135 190.944 134.658 191.329 134.234C191.713 133.811 191.983 133.316 192.117 132.788C192.321 132.308 192.395 131.794 192.335 131.285C192.275 130.776 192.082 130.286 191.77 129.853ZM188.303 133.243C187.64 133.424 186.927 133.406 186.278 133.191L185.344 132.954L186.46 129.589L187.736 129.913C188.337 130.026 188.87 130.324 189.24 130.753C189.371 130.962 189.449 131.194 189.468 131.432C189.487 131.67 189.447 131.909 189.349 132.132C189.287 132.376 189.16 132.604 188.978 132.797C188.796 132.991 188.565 133.144 188.302 133.244L188.303 133.243Z" fill="#00AEEF"/>
<path d="M202.923 131.574L199.586 130.728L191.245 141.017L194.186 141.762L196.013 139.307L200.705 140.497L200.745 143.425L203.686 144.171L202.923 131.574ZM197.371 137.463C199.184 135.005 200.252 133.595 200.658 132.988C200.645 133.185 200.635 133.467 200.638 133.815C200.64 134.163 200.699 135.573 200.723 138.317L197.371 137.463Z" fill="#00AEEF"/>
<path d="M216.64 135.235L212.419 139.188L211.286 133.876L208.326 133.125L210.381 141.119L208.928 145.499L211.622 146.182L213.1 141.725L219.58 135.978L216.64 135.235Z" fill="#00AEEF"/>
<path d="M222.482 142.787C222.746 141.776 223.369 140.863 224.263 140.18C224.642 139.919 225.09 139.745 225.565 139.674C226.04 139.602 226.529 139.636 226.986 139.771C227.474 139.898 227.934 140.097 228.347 140.358C228.791 140.635 229.218 140.933 229.626 141.25L231.152 139.534C230.148 138.726 228.948 138.128 227.643 137.784C226.528 137.475 225.339 137.437 224.201 137.674C223.126 137.915 222.159 138.435 221.428 139.165C220.601 140 220.003 140.989 219.678 142.056C219.05 143.562 219.075 145.217 219.748 146.709C220.114 147.356 220.642 147.922 221.292 148.367C221.942 148.811 222.698 149.123 223.504 149.277C224.693 149.604 225.947 149.709 227.186 149.585L227.85 147.583C226.699 147.686 225.537 147.609 224.417 147.354C222.264 146.812 221.65 145.296 222.482 142.787Z" fill="#00AEEF"/>
<path d="M242.307 141.743L240.856 146.118L235.852 144.849L237.303 140.475L234.416 139.743L230.677 151.016L233.564 151.748L235.182 146.868L240.186 148.136L238.567 153.016L241.261 153.699L245.003 142.423L242.307 141.743Z" fill="#00AEEF"/>
<path d="M255.933 147.205L256.548 145.352L249.236 143.499L245.494 154.776L252.807 156.63L253.477 154.61L248.861 153.438L249.81 150.578L254.231 151.701L254.901 149.682L250.48 148.558L251.317 146.034L255.933 147.205Z" fill="#00AEEF"/>
<path d="M260.575 152.445C260.838 151.431 261.464 150.517 262.36 149.834C262.739 149.573 263.186 149.399 263.662 149.328C264.137 149.256 264.626 149.29 265.083 149.425C265.57 149.553 266.03 149.752 266.442 150.013C266.886 150.29 267.313 150.588 267.721 150.905L269.247 149.188C268.243 148.381 267.043 147.783 265.738 147.439C264.623 147.13 263.434 147.092 262.296 147.328C261.221 147.569 260.255 148.089 259.525 148.82C258.696 149.653 258.096 150.641 257.77 151.709C257.143 153.215 257.168 154.87 257.84 156.361C258.207 157.008 258.736 157.575 259.386 158.019C260.037 158.464 260.794 158.776 261.6 158.931C262.792 159.258 264.048 159.363 265.289 159.24L265.954 157.238C264.801 157.34 263.637 157.263 262.516 157.008C260.362 156.472 259.743 154.954 260.575 152.445Z" fill="#00AEEF"/>
<path d="M276.764 155.889L282.909 152.038L279.88 151.27L275.178 154.193L273.718 155.227L275.407 150.135L272.52 149.404L268.779 160.681L271.665 161.412L273.024 157.317L274.359 156.915L276.103 162.539L279.201 163.327L276.764 155.889Z" fill="#00AEEF"/>
<path d="M354.129 232.589C354.101 232.673 354.055 232.751 353.993 232.818C353.931 232.886 353.854 232.943 353.767 232.985C353.68 233.027 353.584 233.053 353.485 233.063C353.387 233.072 353.287 233.065 353.191 233.041L295.175 218.33C294.983 218.281 294.82 218.167 294.723 218.013C294.627 217.859 294.604 217.678 294.66 217.51C294.687 217.426 294.733 217.348 294.796 217.28C294.858 217.212 294.934 217.156 295.021 217.114C295.108 217.072 295.204 217.046 295.303 217.036C295.402 217.026 295.502 217.034 295.597 217.058L353.613 231.769C353.708 231.793 353.797 231.833 353.875 231.888C353.953 231.942 354.017 232.009 354.065 232.085C354.113 232.162 354.144 232.245 354.154 232.332C354.165 232.418 354.157 232.506 354.129 232.589Z" fill="#00AEEF"/>
<path d="M263.582 174.558C263.44 174.948 263.13 175.276 262.717 175.47C262.305 175.665 261.822 175.713 261.37 175.603L178.129 154.497C177.904 154.442 177.694 154.348 177.51 154.222C177.327 154.096 177.174 153.939 177.06 153.761C176.947 153.582 176.875 153.386 176.849 153.183C176.823 152.98 176.843 152.775 176.908 152.579C177.07 152.203 177.379 151.891 177.781 151.697C178.184 151.504 178.651 151.443 179.101 151.524L262.352 172.635C262.578 172.69 262.788 172.784 262.972 172.91C263.156 173.037 263.31 173.194 263.424 173.372C263.538 173.551 263.611 173.748 263.638 173.951C263.666 174.154 263.646 174.36 263.582 174.557L263.582 174.558Z" fill="#1E2D64"/>
<path d="M341.105 204.778C340.974 205.171 340.67 205.503 340.26 205.701C339.849 205.899 339.366 205.945 338.916 205.831L174.888 164.239C174.665 164.183 174.458 164.088 174.276 163.962C174.095 163.835 173.944 163.678 173.832 163.5C173.72 163.323 173.65 163.127 173.624 162.926C173.598 162.724 173.619 162.52 173.683 162.325C173.814 161.932 174.118 161.6 174.528 161.402C174.939 161.204 175.422 161.157 175.873 161.272L339.9 202.864C340.35 202.978 340.73 203.244 340.956 203.603C341.182 203.962 341.235 204.384 341.105 204.778Z" fill="#1E2D64"/>
<path d="M363.892 199.986C363.762 200.38 363.458 200.712 363.047 200.91C362.637 201.107 362.153 201.154 361.703 201.04L270.236 177.848C270.013 177.791 269.805 177.697 269.624 177.57C269.443 177.443 269.292 177.286 269.18 177.109C269.068 176.931 268.998 176.736 268.972 176.534C268.947 176.333 268.967 176.129 269.031 175.934C269.096 175.739 269.204 175.557 269.349 175.399C269.494 175.24 269.673 175.108 269.876 175.01C270.08 174.913 270.303 174.851 270.534 174.828C270.764 174.806 270.998 174.824 271.221 174.88L362.688 198.073C363.138 198.187 363.518 198.453 363.744 198.812C363.97 199.171 364.024 199.593 363.893 199.987L363.892 199.986Z" fill="#1E2D64"/>
<path d="M192.86 181.359L175.083 176.851C171.915 176.048 168.602 177.643 167.683 180.413L167.683 180.413C166.764 183.183 168.588 186.08 171.756 186.884L189.533 191.391C192.701 192.194 196.014 190.6 196.933 187.83L196.933 187.829C197.852 185.059 196.029 182.162 192.86 181.359Z" fill="#00AEEF"/>
<path d="M340.98 176.658C340.264 176.439 339.605 176.098 339.04 175.655C338.475 175.212 338.017 174.676 337.69 174.077C337.628 173.963 337.622 173.831 337.671 173.712C337.721 173.593 337.822 173.496 337.954 173.443C338.085 173.389 338.235 173.383 338.371 173.427C338.507 173.47 338.618 173.559 338.679 173.673C338.978 174.228 339.422 174.713 339.975 175.09C340.527 175.466 341.174 175.724 341.862 175.841C342.419 175.938 342.996 175.884 343.517 175.687C344.038 175.489 344.477 175.157 344.776 174.735C344.903 174.492 344.964 174.228 344.955 173.961C344.945 173.695 344.866 173.434 344.723 173.199C344.576 172.989 344.373 172.814 344.131 172.69C343.888 172.565 343.615 172.494 343.334 172.483C341.421 172.307 340.3 171.997 339.519 170.804C339.135 170.297 338.988 169.681 339.107 169.083C339.226 168.484 339.602 167.948 340.159 167.584C340.537 167.347 340.968 167.182 341.423 167.099C341.879 167.016 342.349 167.016 342.804 167.101C343.532 167.19 344.231 167.413 344.855 167.753C345.479 168.093 346.014 168.543 346.427 169.075C346.501 169.181 346.525 169.308 346.494 169.429C346.463 169.551 346.378 169.656 346.259 169.724C346.14 169.792 345.996 169.816 345.856 169.792C345.717 169.768 345.594 169.697 345.513 169.595C345.185 169.176 344.76 168.822 344.266 168.555C343.773 168.288 343.22 168.114 342.645 168.045C342.034 167.925 341.393 168.022 340.862 168.314C340.683 168.422 340.53 168.56 340.412 168.721C340.295 168.882 340.215 169.061 340.178 169.249C340.141 169.437 340.147 169.629 340.197 169.815C340.246 170.001 340.337 170.176 340.465 170.33C340.921 171.027 341.441 171.349 343.455 171.533C343.908 171.56 344.347 171.682 344.733 171.889C345.12 172.097 345.443 172.383 345.676 172.724C345.905 173.091 346.033 173.499 346.051 173.916C346.068 174.334 345.973 174.749 345.775 175.129C345.39 175.741 344.794 176.231 344.072 176.529C343.349 176.827 342.538 176.918 341.753 176.789C341.491 176.766 341.233 176.722 340.98 176.658Z" fill="#5D90C1"/>
<path d="M340.192 177.798L340.179 177.792C340.111 177.773 340.048 177.742 339.993 177.702C339.938 177.662 339.893 177.612 339.86 177.556C339.827 177.501 339.807 177.44 339.802 177.378C339.796 177.315 339.804 177.252 339.826 177.193L343.853 166.153C343.873 166.093 343.908 166.037 343.953 165.988C343.999 165.94 344.056 165.9 344.12 165.871C344.184 165.842 344.254 165.825 344.326 165.82C344.398 165.816 344.47 165.824 344.538 165.844C344.606 165.863 344.67 165.894 344.724 165.934C344.779 165.974 344.824 166.024 344.857 166.079C344.89 166.135 344.91 166.196 344.916 166.258C344.922 166.321 344.914 166.384 344.892 166.443L340.865 177.483C340.822 177.602 340.728 177.701 340.602 177.76C340.476 177.819 340.329 177.833 340.192 177.798Z" fill="#5D90C1"/>
<path d="M353.312 179.789C352.596 179.57 351.937 179.229 351.372 178.786C350.808 178.343 350.349 177.807 350.022 177.209C349.96 177.094 349.954 176.963 350.003 176.844C350.053 176.725 350.154 176.628 350.286 176.574C350.417 176.521 350.567 176.515 350.703 176.558C350.839 176.601 350.95 176.69 351.011 176.805C351.31 177.359 351.754 177.844 352.307 178.221C352.86 178.598 353.506 178.855 354.194 178.973C354.751 179.07 355.329 179.016 355.85 178.818C356.371 178.62 356.81 178.288 357.109 177.866C357.235 177.623 357.296 177.358 357.287 177.092C357.278 176.826 357.199 176.565 357.056 176.329C356.909 176.12 356.705 175.945 356.463 175.82C356.221 175.696 355.948 175.625 355.667 175.614C353.754 175.437 352.632 175.128 351.851 173.935C351.468 173.428 351.32 172.812 351.439 172.213C351.558 171.615 351.935 171.078 352.491 170.714C352.87 170.478 353.3 170.313 353.756 170.23C354.211 170.147 354.681 170.147 355.137 170.231C355.865 170.321 356.563 170.543 357.187 170.883C357.811 171.223 358.346 171.674 358.759 172.205C358.8 172.258 358.829 172.317 358.844 172.38C358.859 172.442 358.859 172.506 358.845 172.569C358.831 172.631 358.803 172.691 358.762 172.744C358.721 172.796 358.669 172.842 358.607 172.876C358.546 172.911 358.478 172.935 358.406 172.946C358.334 172.957 358.261 172.956 358.19 172.942C358.118 172.928 358.051 172.901 357.992 172.864C357.933 172.827 357.883 172.78 357.845 172.725C357.517 172.306 357.092 171.952 356.598 171.685C356.104 171.418 355.552 171.244 354.977 171.175C354.366 171.055 353.725 171.152 353.195 171.443C353.015 171.552 352.862 171.69 352.745 171.851C352.627 172.011 352.547 172.191 352.51 172.379C352.473 172.566 352.48 172.759 352.529 172.945C352.578 173.13 352.669 173.305 352.797 173.46C353.253 174.156 353.773 174.478 355.787 174.663C356.24 174.689 356.679 174.812 357.065 175.019C357.452 175.227 357.776 175.513 358.008 175.854C358.237 176.22 358.366 176.628 358.383 177.046C358.4 177.463 358.306 177.879 358.107 178.258C357.723 178.871 357.126 179.362 356.404 179.661C355.681 179.96 354.869 180.051 354.083 179.922C353.822 179.898 353.564 179.853 353.312 179.789Z" fill="#5D90C1"/>
<path d="M352.526 180.928L352.513 180.922C352.445 180.903 352.382 180.873 352.327 180.832C352.272 180.792 352.227 180.743 352.194 180.687C352.161 180.631 352.141 180.57 352.135 180.508C352.129 180.446 352.138 180.383 352.16 180.323L356.187 169.284C356.207 169.223 356.242 169.167 356.288 169.119C356.334 169.071 356.39 169.031 356.454 169.002C356.518 168.973 356.588 168.956 356.66 168.951C356.732 168.946 356.804 168.954 356.872 168.975C356.94 168.994 357.004 169.024 357.058 169.064C357.113 169.105 357.158 169.154 357.191 169.21C357.224 169.266 357.244 169.326 357.25 169.389C357.256 169.451 357.247 169.514 357.226 169.574L353.199 180.613C353.156 180.732 353.062 180.832 352.936 180.891C352.81 180.95 352.663 180.963 352.526 180.928Z" fill="#5D90C1"/>
<path d="M365.646 182.921C364.93 182.702 364.271 182.361 363.706 181.918C363.142 181.475 362.683 180.939 362.356 180.34C362.326 180.284 362.308 180.222 362.305 180.16C362.302 180.097 362.313 180.034 362.338 179.975C362.362 179.916 362.4 179.862 362.448 179.816C362.496 179.77 362.555 179.732 362.62 179.706C362.685 179.679 362.755 179.664 362.827 179.661C362.898 179.659 362.97 179.668 363.037 179.69C363.105 179.711 363.167 179.744 363.219 179.786C363.272 179.829 363.315 179.88 363.346 179.936C363.644 180.491 364.088 180.976 364.641 181.353C365.194 181.729 365.84 181.987 366.528 182.104C367.085 182.201 367.663 182.147 368.184 181.95C368.705 181.752 369.144 181.419 369.443 180.997C369.569 180.755 369.63 180.49 369.621 180.224C369.611 179.958 369.532 179.697 369.389 179.462C369.242 179.252 369.039 179.077 368.797 178.953C368.555 178.828 368.281 178.757 368.001 178.746C366.088 178.57 364.966 178.26 364.185 177.067C363.802 176.56 363.655 175.944 363.774 175.346C363.893 174.747 364.269 174.211 364.826 173.847C365.204 173.611 365.635 173.446 366.09 173.362C366.546 173.279 367.016 173.28 367.471 173.364C368.199 173.454 368.898 173.676 369.522 174.016C370.146 174.356 370.682 174.807 371.094 175.339C371.169 175.445 371.193 175.572 371.161 175.693C371.13 175.814 371.046 175.92 370.926 175.987C370.807 176.055 370.663 176.08 370.523 176.056C370.384 176.031 370.261 175.961 370.18 175.858C369.852 175.44 369.427 175.085 368.934 174.818C368.44 174.551 367.887 174.378 367.312 174.308C366.701 174.188 366.06 174.285 365.53 174.577C365.35 174.685 365.197 174.823 365.08 174.984C364.962 175.144 364.883 175.324 364.846 175.512C364.809 175.699 364.815 175.892 364.864 176.078C364.913 176.263 365.004 176.439 365.132 176.593C365.588 177.289 366.108 177.612 368.123 177.796C368.576 177.822 369.014 177.945 369.401 178.152C369.788 178.36 370.111 178.646 370.343 178.987C370.573 179.353 370.701 179.762 370.718 180.179C370.735 180.596 370.641 181.012 370.442 181.392C370.058 182.004 369.462 182.496 368.739 182.794C368.016 183.093 367.204 183.185 366.418 183.055C366.157 183.031 365.899 182.986 365.646 182.921Z" fill="#5D90C1"/>
<path d="M364.859 184.06L364.847 184.055C364.709 184.016 364.595 183.931 364.528 183.819C364.462 183.707 364.449 183.576 364.493 183.455L368.52 172.416C368.541 172.356 368.575 172.3 368.621 172.251C368.667 172.203 368.724 172.163 368.788 172.134C368.852 172.105 368.922 172.088 368.994 172.083C369.065 172.078 369.137 172.087 369.206 172.107C369.274 172.126 369.337 172.156 369.392 172.197C369.447 172.237 369.492 172.287 369.525 172.342C369.558 172.398 369.577 172.459 369.583 172.521C369.589 172.584 369.581 172.646 369.559 172.706L365.532 183.745C365.49 183.864 365.395 183.964 365.269 184.023C365.144 184.082 364.996 184.095 364.859 184.06Z" fill="#5D90C1"/>
<path d="M296.387 224.231C303.545 218.272 312.463 214.178 322.137 212.408C324.012 212.051 325.919 211.784 327.812 211.511C328.665 211.388 331.338 211.036 330.834 212.5C330.468 213.558 328.963 214.413 327.99 215.011C326.849 215.714 325.637 216.347 324.438 216.969C322.145 218.159 319.018 219.612 316.28 218.837C315.725 218.679 315.775 218.582 316.278 218.337C316.533 218.226 316.803 218.143 317.082 218.091C317.961 217.9 318.858 217.778 319.762 217.726C321.55 217.595 323.763 217.484 325.436 218.163C327.892 219.158 323.236 221.139 322.403 221.672C322.028 221.913 322.342 222.429 322.744 222.434C325.653 222.465 328.382 221.276 331.244 220.939C332.456 220.797 333.968 220.657 335.05 221.257C336.072 221.825 334.886 223.577 334.627 224.304C334.607 224.369 334.605 224.437 334.619 224.503C334.633 224.57 334.665 224.632 334.711 224.686C334.757 224.741 334.816 224.785 334.884 224.817C334.953 224.848 335.028 224.865 335.105 224.868C337.918 225.17 340.549 223.739 343.369 223.899C344.019 223.936 344.031 223.053 343.382 223.017C340.562 222.856 337.914 224.288 335.119 223.985L335.597 224.549C335.949 223.56 336.825 222.308 336.309 221.254C335.765 220.145 334.113 219.968 332.911 219.955C331.364 219.97 329.827 220.162 328.338 220.527C326.485 220.952 324.699 221.574 322.755 221.554L323.096 222.316C324.466 221.438 326.529 220.865 327.093 219.311C327.202 218.946 327.158 218.559 326.97 218.219C326.781 217.88 326.46 217.611 326.064 217.46C324.96 217.017 323.758 216.792 322.543 216.803C321.138 216.747 319.73 216.809 318.338 216.988C317.334 217.04 316.359 217.298 315.491 217.741C314.276 218.502 314.991 219.408 316.141 219.732C317.856 220.072 319.65 219.924 321.263 219.311C323.191 218.638 325.031 217.786 326.751 216.768C327.765 216.232 328.741 215.644 329.674 215.005C330.576 214.373 331.694 213.507 331.879 212.448C331.905 212.213 331.876 211.975 331.795 211.749C331.713 211.523 331.581 211.315 331.405 211.135C331.228 210.955 331.012 210.808 330.77 210.704C330.527 210.599 330.263 210.538 329.993 210.524C328.517 210.505 327.044 210.656 325.614 210.972C316.03 212.215 306.975 215.598 299.324 220.795C298.058 221.676 296.844 222.611 295.687 223.599C295.594 223.68 295.542 223.79 295.541 223.905C295.539 224.02 295.589 224.13 295.68 224.214C295.77 224.297 295.894 224.346 296.025 224.351C296.156 224.355 296.284 224.315 296.382 224.239L296.387 224.231Z" fill="#00AEEF"/>
<path d="M384.609 148.947L379.537 150.373C379.537 150.373 379.356 154.807 383.343 160.038C383.425 160.113 383.523 160.173 383.632 160.213C383.741 160.254 383.859 160.275 383.977 160.275C384.096 160.275 384.213 160.254 384.322 160.213C384.431 160.173 384.53 160.113 384.612 160.038L387.511 155.918C387.672 155.682 387.772 155.417 387.804 155.143C387.835 154.869 387.797 154.593 387.692 154.333L384.609 148.947Z" fill="white"/>
<g filter="url(#filter14_b_6_35)">
<path d="M352.077 174.86C352.651 174.439 353.012 173.835 353.08 173.182C353.148 172.529 352.917 171.879 352.439 171.374L351.352 170.106C350.002 168.675 349.237 166.891 349.177 165.037C349.177 163.769 348.271 160.125 346.822 160.438C345.553 160.597 346.822 165.037 345.553 164.873C345.009 164.873 342.835 161.704 341.204 159.802C340.298 158.851 338.668 158.217 338.486 159.168C338.305 159.802 337.58 159.802 336.855 160.277C336.13 160.753 336.492 163.922 336.492 164.876C336.492 165.985 336.13 166.302 337.942 168.045C339.392 169.471 345.549 172.957 345.549 172.957L348.267 174.541C348.489 174.785 348.766 174.987 349.079 175.136C349.393 175.285 349.738 175.377 350.093 175.407C350.448 175.436 350.807 175.403 351.147 175.309C351.487 175.214 351.802 175.061 352.073 174.857L352.077 174.86Z" fill="#FAB9AF"/>
<path d="M345.549 172.957L345.796 172.521L345.796 172.521L345.795 172.521L345.792 172.519L345.779 172.512L345.727 172.483C345.682 172.457 345.616 172.419 345.531 172.37C345.36 172.273 345.115 172.131 344.816 171.957C344.218 171.61 343.407 171.131 342.55 170.609C341.693 170.086 340.795 169.521 340.022 168.999C339.241 168.471 338.619 168.009 338.293 167.688L338.293 167.688L338.289 167.684C337.388 166.818 337.11 166.379 337.015 166.074C336.97 165.929 336.959 165.792 336.964 165.607C336.965 165.555 336.969 165.484 336.973 165.401C336.982 165.246 336.992 165.051 336.992 164.876C336.992 164.665 336.976 164.356 336.958 164.015C336.954 163.943 336.95 163.87 336.946 163.796C336.924 163.358 336.902 162.869 336.902 162.397C336.902 161.921 336.924 161.486 336.984 161.151C337.015 160.983 337.051 160.859 337.088 160.775C337.113 160.719 337.132 160.696 337.136 160.691C337.352 160.55 337.543 160.47 337.754 160.381C337.859 160.337 337.968 160.291 338.087 160.235C338.421 160.077 338.815 159.835 338.967 159.306L338.973 159.284L338.977 159.262C338.987 159.213 338.993 159.212 339.002 159.211C339.004 159.211 339.006 159.211 339.008 159.21C339.066 159.192 339.204 159.185 339.434 159.252C339.879 159.382 340.434 159.722 340.833 160.138C341.389 160.786 342.003 161.577 342.602 162.347C342.872 162.694 343.138 163.037 343.394 163.361C343.803 163.876 344.187 164.346 344.509 164.689C344.668 164.86 344.824 165.012 344.968 165.125C345.04 165.182 345.12 165.238 345.205 165.281C345.277 165.318 345.385 165.364 345.514 165.371C345.83 165.405 346.108 165.289 346.303 165.058C346.473 164.855 346.553 164.595 346.599 164.37C346.688 163.925 346.688 163.34 346.688 162.814L346.688 162.776C346.688 162.206 346.689 161.693 346.759 161.311C346.794 161.12 346.838 161.01 346.874 160.955C346.881 160.944 346.886 160.938 346.89 160.934L346.906 160.932L346.928 160.927C347.044 160.902 347.203 160.932 347.432 161.183C347.661 161.435 347.884 161.837 348.078 162.328C348.467 163.312 348.677 164.477 348.677 165.037V165.045L348.678 165.053C348.741 167.033 349.557 168.928 350.98 170.441L352.06 171.7L352.068 171.709L352.076 171.718C352.461 172.124 352.634 172.632 352.582 173.131C352.535 173.583 352.304 174.019 351.911 174.354L351.773 174.458C351.554 174.622 351.296 174.748 351.013 174.827C350.731 174.905 350.432 174.933 350.135 174.908C349.838 174.884 349.551 174.807 349.294 174.685C349.036 174.562 348.813 174.398 348.637 174.204L348.586 174.147L348.519 174.109L345.801 172.525L345.801 172.525L345.796 172.521L345.549 172.957Z" stroke="black"/>
</g>
<path d="M352.324 170.317C352.324 170.317 374.295 187.012 380.275 188.755C386.254 190.498 398.387 152.432 401.464 149.263C406.535 143.876 417.592 149.421 415.598 159.244C413.243 171.603 384.442 202.698 380.274 203.011C376.106 203.324 347.792 175.066 347.792 175.066C348.337 173.485 349.786 171.898 352.324 170.317Z" fill="#00AEEF"/>
<path d="M188.534 18.0745C189.204 18.041 189.876 18.0944 190.527 18.2329C192.335 18.4516 194.073 18.9847 195.641 19.8008C197.209 20.6169 198.573 21.6994 199.654 22.9844C200.736 24.2694 201.511 25.7307 201.935 27.2822C202.36 28.8336 202.424 30.4437 202.125 32.0173C201.596 34.8819 199.922 37.4893 197.4 39.3753C194.878 41.2613 191.672 42.3034 188.353 42.316C187.683 42.3495 187.011 42.2961 186.359 42.1575C182.902 41.6934 179.774 40.1031 177.602 37.7058C175.431 35.3085 174.377 32.2816 174.652 29.233C174.927 26.1843 176.511 23.3395 179.086 21.2698C181.661 19.2 185.036 18.0585 188.533 18.0745M188.533 16.9651C184.713 16.9482 181.026 18.196 178.215 20.4578C175.403 22.7197 173.674 25.8281 173.376 29.1585C173.078 32.4889 174.232 35.7946 176.607 38.4116C178.981 41.0285 182.401 42.7628 186.178 43.266C186.953 43.4037 187.744 43.4569 188.533 43.4245C192.354 43.4414 196.041 42.1936 198.852 39.9318C201.664 37.6699 203.393 34.5615 203.691 31.2311C203.989 27.9007 202.835 24.595 200.46 21.978C198.085 19.3611 194.666 17.6268 190.889 17.1236C190.112 16.9979 189.323 16.9448 188.533 16.9651Z" fill="white"/>
<path d="M185.339 28.4486H190.177V21.9822L185.339 28.4486Z" fill="white"/>
<path d="M186.402 32.7514V39.2178L191.239 32.7514H186.402Z" fill="white"/>
<path d="M191.239 32.7514L194.455 28.4486H185.339L182.124 32.7514H191.239Z" fill="white"/>
<path d="M314.671 317.649C316.981 309.05 310.88 300.443 301.045 298.423C291.21 296.404 281.366 301.738 279.056 310.337C276.747 318.936 282.847 327.544 292.682 329.563C302.517 331.582 312.362 326.248 314.671 317.649Z" fill="#FAC855"/>
<path d="M296.796 298.034C291.949 298.046 287.305 299.735 283.878 302.732C280.45 305.729 278.518 309.789 278.504 314.027H296.796V298.034Z" fill="#FFDC64"/>
<path d="M309.757 316.653C311.434 310.419 307.013 304.177 299.883 302.712C292.753 301.246 285.614 305.111 283.938 311.345C282.261 317.578 286.682 323.82 293.812 325.286C300.941 326.752 308.08 322.887 309.757 316.653Z" fill="#FFA50A"/>
<path d="M300.759 309.362C300.553 309.563 300.277 309.698 299.973 309.746C299.67 309.795 299.357 309.753 299.083 309.629C298.513 309.256 297.813 309.067 297.101 309.096C295.881 309.096 295.12 309.496 295.12 310.562C295.12 312.697 301.976 312.562 301.976 316.826C302.025 317.724 301.74 318.613 301.163 319.358C300.586 320.103 299.748 320.664 298.775 320.958C298.516 321.032 298.289 321.174 298.125 321.365C297.961 321.556 297.869 321.787 297.86 322.025V322.425C297.863 322.566 297.833 322.706 297.773 322.836C297.712 322.967 297.622 323.085 297.508 323.185C297.394 323.284 297.259 323.363 297.11 323.416C296.96 323.469 296.8 323.495 296.639 323.492C296.478 323.495 296.318 323.469 296.169 323.416C296.02 323.363 295.884 323.284 295.77 323.185C295.657 323.085 295.567 322.967 295.506 322.836C295.446 322.706 295.416 322.566 295.419 322.425V322.158C295.407 321.9 295.294 321.654 295.1 321.46C294.906 321.266 294.642 321.136 294.352 321.091C293.477 320.919 292.648 320.603 291.91 320.158C291.621 319.988 291.414 319.73 291.33 319.435C291.245 319.139 291.289 318.827 291.452 318.558L291.758 318.158C291.838 318.036 291.944 317.928 292.072 317.841C292.199 317.755 292.345 317.691 292.501 317.654C292.657 317.617 292.819 317.607 292.979 317.625C293.14 317.643 293.294 317.688 293.434 317.758C294.236 318.26 295.193 318.538 296.178 318.558C297.703 318.558 298.312 318.025 298.312 316.959C298.312 314.693 291.456 314.693 291.456 310.561C291.42 309.699 291.694 308.849 292.242 308.132C292.789 307.414 293.581 306.865 294.505 306.563C294.764 306.489 294.991 306.347 295.155 306.156C295.319 305.965 295.411 305.734 295.419 305.496V305.099C295.417 304.958 295.447 304.818 295.507 304.688C295.568 304.557 295.658 304.439 295.771 304.339C295.885 304.24 296.021 304.161 296.17 304.108C296.319 304.055 296.479 304.029 296.64 304.032C296.801 304.029 296.961 304.055 297.111 304.108C297.26 304.161 297.395 304.24 297.509 304.339C297.623 304.439 297.713 304.557 297.773 304.688C297.834 304.818 297.864 304.958 297.861 305.099V305.366C297.87 305.605 297.962 305.835 298.126 306.026C298.289 306.217 298.516 306.359 298.776 306.433C299.509 306.609 300.186 306.928 300.758 307.366C300.894 307.459 301.007 307.575 301.089 307.708C301.172 307.84 301.222 307.986 301.236 308.137C301.25 308.287 301.229 308.439 301.173 308.581C301.116 308.724 301.027 308.855 300.91 308.966L300.759 309.362Z" fill="#FFDC64"/>
<path d="M314.671 275.771C316.981 267.172 310.88 258.565 301.045 256.546C291.21 254.526 281.366 259.86 279.056 268.459C276.747 277.058 282.847 285.666 292.682 287.685C302.517 289.704 312.362 284.37 314.671 275.771Z" fill="#FAC855"/>
<path d="M296.796 256.156C291.949 256.169 287.305 257.858 283.878 260.854C280.45 263.851 278.518 267.912 278.504 272.149H296.796V256.156Z" fill="#FFDC64"/>
<path d="M309.757 274.775C311.434 268.542 307.013 262.3 299.883 260.834C292.753 259.368 285.614 263.233 283.938 269.467C282.261 275.701 286.682 281.942 293.812 283.408C300.941 284.874 308.08 281.009 309.757 274.775Z" fill="#FFA50A"/>
<path d="M300.759 267.485C300.553 267.685 300.277 267.82 299.973 267.869C299.67 267.917 299.357 267.876 299.083 267.751C298.513 267.378 297.813 267.189 297.101 267.219C295.881 267.219 295.12 267.618 295.12 268.684C295.12 270.819 301.976 270.684 301.976 274.948C302.025 275.847 301.74 276.735 301.163 277.48C300.586 278.225 299.748 278.787 298.775 279.08C298.516 279.154 298.289 279.296 298.125 279.487C297.961 279.678 297.869 279.909 297.86 280.147V280.547C297.863 280.688 297.833 280.828 297.773 280.958C297.712 281.089 297.622 281.207 297.508 281.307C297.394 281.407 297.259 281.485 297.11 281.538C296.96 281.591 296.8 281.617 296.639 281.615C296.478 281.617 296.318 281.591 296.169 281.538C296.02 281.485 295.884 281.407 295.77 281.307C295.657 281.207 295.567 281.089 295.506 280.958C295.446 280.828 295.416 280.688 295.419 280.547V280.28C295.407 280.023 295.294 279.776 295.1 279.582C294.906 279.388 294.642 279.258 294.352 279.213C293.477 279.041 292.648 278.725 291.91 278.28C291.621 278.11 291.414 277.852 291.33 277.557C291.245 277.262 291.289 276.949 291.452 276.68L291.758 276.281C291.838 276.158 291.944 276.05 292.072 275.964C292.199 275.877 292.345 275.813 292.501 275.776C292.657 275.739 292.819 275.729 292.979 275.747C293.14 275.765 293.294 275.81 293.434 275.881C294.236 276.382 295.193 276.66 296.178 276.68C297.703 276.68 298.312 276.148 298.312 275.081C298.312 272.815 291.456 272.815 291.456 268.683C291.42 267.822 291.694 266.971 292.242 266.254C292.789 265.536 293.581 264.987 294.505 264.685C294.764 264.611 294.991 264.469 295.155 264.278C295.319 264.087 295.411 263.856 295.419 263.618V263.221C295.417 263.08 295.447 262.941 295.507 262.81C295.568 262.68 295.658 262.561 295.771 262.462C295.885 262.362 296.021 262.283 296.17 262.231C296.319 262.178 296.479 262.152 296.64 262.154C296.801 262.152 296.961 262.178 297.111 262.231C297.26 262.283 297.395 262.362 297.509 262.462C297.623 262.561 297.713 262.68 297.773 262.81C297.834 262.941 297.864 263.08 297.861 263.221V263.488C297.87 263.727 297.962 263.957 298.126 264.148C298.289 264.339 298.516 264.481 298.776 264.556C299.509 264.731 300.186 265.05 300.758 265.488C300.894 265.581 301.007 265.697 301.089 265.83C301.172 265.962 301.222 266.109 301.236 266.259C301.25 266.409 301.229 266.561 301.173 266.703C301.116 266.846 301.027 266.977 300.91 267.088L300.759 267.485Z" fill="#FFDC64"/>
</g>
<defs>
<filter id="filter0_d_6_35" x="-4" y="0" width="460.536" height="429.245" filterUnits="userSpaceOnUse" color-interpolation-filters="sRGB">
<feFlood flood-opacity="0" result="BackgroundImageFix"/>
<feColorMatrix in="SourceAlpha" type="matrix" values="0 0 0 0 0 0 0 0 0 0 0 0 0 0 0 0 0 0 127 0" result="hardAlpha"/>
<feOffset dy="4"/>
<feGaussianBlur stdDeviation="2"/>
<feComposite in2="hardAlpha" operator="out"/>
<feColorMatrix type="matrix" values="0 0 0 0 0 0 0 0 0 0 0 0 0 0 0 0 0 0 0.25 0"/>
<feBlend mode="normal" in2="BackgroundImageFix" result="effect1_dropShadow_6_35"/>
<feBlend mode="normal" in="SourceGraphic" in2="effect1_dropShadow_6_35" result="shape"/>
</filter>
<filter id="filter1_b_6_35" x="140.859" y="77.0172" width="16.1624" height="20.5434" filterUnits="userSpaceOnUse" color-interpolation-filters="sRGB">
<feFlood flood-opacity="0" result="BackgroundImageFix"/>
<feGaussianBlur in="BackgroundImage" stdDeviation="2"/>
<feComposite in2="SourceAlpha" operator="in" result="effect1_backgroundBlur_6_35"/>
<feBlend mode="normal" in="SourceGraphic" in2="effect1_backgroundBlur_6_35" result="shape"/>
</filter>
<filter id="filter2_b_6_35" x="129.091" y="75.0248" width="27.033" height="24.8438" filterUnits="userSpaceOnUse" color-interpolation-filters="sRGB">
<feFlood flood-opacity="0" result="BackgroundImageFix"/>
<feGaussianBlur in="BackgroundImage" stdDeviation="2"/>
<feComposite in2="SourceAlpha" operator="in" result="effect1_backgroundBlur_6_35"/>
<feBlend mode="normal" in="SourceGraphic" in2="effect1_backgroundBlur_6_35" result="shape"/>
</filter>
<filter id="filter3_b_6_35" x="94.8214" y="203.196" width="38.8691" height="155.518" filterUnits="userSpaceOnUse" color-interpolation-filters="sRGB">
<feFlood flood-opacity="0" result="BackgroundImageFix"/>
<feGaussianBlur in="BackgroundImage" stdDeviation="2"/>
<feComposite in2="SourceAlpha" operator="in" result="effect1_backgroundBlur_6_35"/>
<feBlend mode="normal" in="SourceGraphic" in2="effect1_backgroundBlur_6_35" result="shape"/>
</filter>
<filter id="filter4_b_6_35" x="53.21" y="201.809" width="60.2565" height="157.109" filterUnits="userSpaceOnUse" color-interpolation-filters="sRGB">
<feFlood flood-opacity="0" result="BackgroundImageFix"/>
<feGaussianBlur in="BackgroundImage" stdDeviation="2"/>
<feComposite in2="SourceAlpha" operator="in" result="effect1_backgroundBlur_6_35"/>
<feBlend mode="normal" in="SourceGraphic" in2="effect1_backgroundBlur_6_35" result="shape"/>
</filter>
<filter id="filter5_b_6_35" x="68.2659" y="121.774" width="33.9599" height="47.1802" filterUnits="userSpaceOnUse" color-interpolation-filters="sRGB">
<feFlood flood-opacity="0" result="BackgroundImageFix"/>
<feGaussianBlur in="BackgroundImage" stdDeviation="2"/>
<feComposite in2="SourceAlpha" operator="in" result="effect1_backgroundBlur_6_35"/>
<feBlend mode="normal" in="SourceGraphic" in2="effect1_backgroundBlur_6_35" result="shape"/>
</filter>
<filter id="filter6_b_6_35" x="66.9726" y="135.192" width="14.734" height="15.7453" filterUnits="userSpaceOnUse" color-interpolation-filters="sRGB">
<feFlood flood-opacity="0" result="BackgroundImageFix"/>
<feGaussianBlur in="BackgroundImage" stdDeviation="2"/>
<feComposite in2="SourceAlpha" operator="in" result="effect1_backgroundBlur_6_35"/>
<feBlend mode="normal" in="SourceGraphic" in2="effect1_backgroundBlur_6_35" result="shape"/>
</filter>
<filter id="filter7_b_6_35" x="64.8154" y="234.562" width="23.4145" height="25.8073" filterUnits="userSpaceOnUse" color-interpolation-filters="sRGB">
<feFlood flood-opacity="0" result="BackgroundImageFix"/>
<feGaussianBlur in="BackgroundImage" stdDeviation="2"/>
<feComposite in2="SourceAlpha" operator="in" result="effect1_backgroundBlur_6_35"/>
<feBlend mode="normal" in="SourceGraphic" in2="effect1_backgroundBlur_6_35" result="shape"/>
</filter>
<filter id="filter8_b_6_35" x="354.335" y="328.729" width="27.6092" height="29.898" filterUnits="userSpaceOnUse" color-interpolation-filters="sRGB">
<feFlood flood-opacity="0" result="BackgroundImageFix"/>
<feGaussianBlur in="BackgroundImage" stdDeviation="2"/>
<feComposite in2="SourceAlpha" operator="in" result="effect1_backgroundBlur_6_35"/>
<feBlend mode="normal" in="SourceGraphic" in2="effect1_backgroundBlur_6_35" result="shape"/>
</filter>
<filter id="filter9_b_6_35" x="355.679" y="237.422" width="19.5036" height="28.0733" filterUnits="userSpaceOnUse" color-interpolation-filters="sRGB">
<feFlood flood-opacity="0" result="BackgroundImageFix"/>
<feGaussianBlur in="BackgroundImage" stdDeviation="2"/>
<feComposite in2="SourceAlpha" operator="in" result="effect1_backgroundBlur_6_35"/>
<feBlend mode="normal" in="SourceGraphic" in2="effect1_backgroundBlur_6_35" result="shape"/>
</filter>
<filter id="filter10_b_6_35" x="359.228" y="143.203" width="67.9818" height="84.0517" filterUnits="userSpaceOnUse" color-interpolation-filters="sRGB">
<feFlood flood-opacity="0" result="BackgroundImageFix"/>
<feGaussianBlur in="BackgroundImage" stdDeviation="2"/>
<feComposite in2="SourceAlpha" operator="in" result="effect1_backgroundBlur_6_35"/>
<feBlend mode="normal" in="SourceGraphic" in2="effect1_backgroundBlur_6_35" result="shape"/>
</filter>
<filter id="filter11_b_6_35" x="411.236" y="326.67" width="30.7644" height="31.9345" filterUnits="userSpaceOnUse" color-interpolation-filters="sRGB">
<feFlood flood-opacity="0" result="BackgroundImageFix"/>
<feGaussianBlur in="BackgroundImage" stdDeviation="2"/>
<feComposite in2="SourceAlpha" operator="in" result="effect1_backgroundBlur_6_35"/>
<feBlend mode="normal" in="SourceGraphic" in2="effect1_backgroundBlur_6_35" result="shape"/>
</filter>
<filter id="filter12_b_6_35" x="370.145" y="113.734" width="31.5133" height="45.6075" filterUnits="userSpaceOnUse" color-interpolation-filters="sRGB">
<feFlood flood-opacity="0" result="BackgroundImageFix"/>
<feGaussianBlur in="BackgroundImage" stdDeviation="2"/>
<feComposite in2="SourceAlpha" operator="in" result="effect1_backgroundBlur_6_35"/>
<feBlend mode="normal" in="SourceGraphic" in2="effect1_backgroundBlur_6_35" result="shape"/>
</filter>
<filter id="filter13_b_6_35" x="389.853" y="123.084" width="14.3421" height="14.8105" filterUnits="userSpaceOnUse" color-interpolation-filters="sRGB">
<feFlood flood-opacity="0" result="BackgroundImageFix"/>
<feGaussianBlur in="BackgroundImage" stdDeviation="2"/>
<feComposite in2="SourceAlpha" operator="in" result="effect1_backgroundBlur_6_35"/>
<feBlend mode="normal" in="SourceGraphic" in2="effect1_backgroundBlur_6_35" result="shape"/>
</filter>
<filter id="filter14_b_6_35" x="332.402" y="154.698" width="24.6897" height="24.7194" filterUnits="userSpaceOnUse" color-interpolation-filters="sRGB">
<feFlood flood-opacity="0" result="BackgroundImageFix"/>
<feGaussianBlur in="BackgroundImage" stdDeviation="2"/>
<feComposite in2="SourceAlpha" operator="in" result="effect1_backgroundBlur_6_35"/>
<feBlend mode="normal" in="SourceGraphic" in2="effect1_backgroundBlur_6_35" result="shape"/>
</filter>
<clipPath id="clip0_6_35">
<rect width="452.536" height="421.245" fill="white"/>
</clipPath>
</defs>
</svg>
